<?xml version="1.0" encoding="UTF-8" standalone="no"?>
<!-- Created with Inkscape (http://www.inkscape.org/) -->

<svg
   version="1.1"
   id="svg2"
   xml:space="preserve"
   width="1152"
   height="384"
   viewBox="0 0 1152 384"
   sodipodi:docname="fs1_wt_max_cpm.svg"
   inkscape:version="1.1.1 (3bf5ae0d25, 2021-09-20)"
   xmlns:inkscape="http://www.inkscape.org/namespaces/inkscape"
   xmlns:sodipodi="http://sodipodi.sourceforge.net/DTD/sodipodi-0.dtd"
   xmlns="http://www.w3.org/2000/svg"
   xmlns:svg="http://www.w3.org/2000/svg"><defs
     id="defs6"><clipPath
       clipPathUnits="userSpaceOnUse"
       id="clipPath46"><path
         d="M 0,0 H 288 V 288 H 0 Z"
         id="path44" /></clipPath><clipPath
       clipPathUnits="userSpaceOnUse"
       id="clipPath58"><path
         d="M 35.98,31.91 H 282.52 V 264.85 H 35.98 Z"
         id="path56" /></clipPath><clipPath
       clipPathUnits="userSpaceOnUse"
       id="clipPath302"><path
         d="M 288,0 H 576 V 288 H 288 Z"
         id="path300" /></clipPath><clipPath
       clipPathUnits="userSpaceOnUse"
       id="clipPath314"><path
         d="M 323.98,31.91 H 570.52 V 264.85 H 323.98 Z"
         id="path312" /></clipPath><clipPath
       clipPathUnits="userSpaceOnUse"
       id="clipPath558"><path
         d="M 576,0 H 864 V 288 H 576 Z"
         id="path556" /></clipPath><clipPath
       clipPathUnits="userSpaceOnUse"
       id="clipPath570"><path
         d="M 611.98,31.91 H 858.52 V 264.85 H 611.98 Z"
         id="path568" /></clipPath></defs><sodipodi:namedview
     id="namedview4"
     pagecolor="#ffffff"
     bordercolor="#666666"
     borderopacity="1.0"
     inkscape:pageshadow="2"
     inkscape:pageopacity="0.0"
     inkscape:pagecheckerboard="0"
     showgrid="false"
     inkscape:zoom="2.3697917"
     inkscape:cx="717.57362"
     inkscape:cy="110.76923"
     inkscape:window-width="1920"
     inkscape:window-height="1111"
     inkscape:window-x="-9"
     inkscape:window-y="-9"
     inkscape:window-maximized="1"
     inkscape:current-layer="g8" /><g
     id="g8"
     inkscape:groupmode="layer"
     inkscape:label="fs1_wt_max_cpm"
     transform="matrix(1.3333333,0,0,-1.3333333,0,384)"><g
       id="g10" /><g
       id="g12" /><g
       id="g14" /><g
       id="g16" /><g
       id="g18" /><g
       id="g20" /><g
       id="g22" /><g
       id="g24" /><g
       id="g26" /><g
       id="g28" /><g
       id="g30" /><g
       id="g32" /><g
       id="g34" /><g
       id="g36" /><g
       id="g38" /><g
       id="g50" /><g
       id="g52"><g
         id="g54"
         clip-path="url(#clipPath58)"><path
           d="M 35.98,31.91 H 282.52 V 264.85 H 35.98 Z"
           style="fill:#ffffff;fill-opacity:1;fill-rule:nonzero;stroke:none"
           id="path60" /><path
           d="M 35.98,63.67 H 282.52"
           style="fill:none;stroke:#ebebeb;stroke-width:0.53;stroke-linecap:butt;stroke-linejoin:round;stroke-miterlimit:10;stroke-dasharray:none;stroke-opacity:1"
           id="path62" /><path
           d="M 35.98,106.03 H 282.52"
           style="fill:none;stroke:#ebebeb;stroke-width:0.53;stroke-linecap:butt;stroke-linejoin:round;stroke-miterlimit:10;stroke-dasharray:none;stroke-opacity:1"
           id="path64" /><path
           d="M 35.98,148.38 H 282.52"
           style="fill:none;stroke:#ebebeb;stroke-width:0.53;stroke-linecap:butt;stroke-linejoin:round;stroke-miterlimit:10;stroke-dasharray:none;stroke-opacity:1"
           id="path66" /><path
           d="M 35.98,190.73 H 282.52"
           style="fill:none;stroke:#ebebeb;stroke-width:0.53;stroke-linecap:butt;stroke-linejoin:round;stroke-miterlimit:10;stroke-dasharray:none;stroke-opacity:1"
           id="path68" /><path
           d="M 35.98,233.08 H 282.52"
           style="fill:none;stroke:#ebebeb;stroke-width:0.53;stroke-linecap:butt;stroke-linejoin:round;stroke-miterlimit:10;stroke-dasharray:none;stroke-opacity:1"
           id="path70" /><path
           d="M 59.64,31.91 V 264.85"
           style="fill:none;stroke:#ebebeb;stroke-width:0.53;stroke-linecap:butt;stroke-linejoin:round;stroke-miterlimit:10;stroke-dasharray:none;stroke-opacity:1"
           id="path72" /><path
           d="M 134.35,31.91 V 264.85"
           style="fill:none;stroke:#ebebeb;stroke-width:0.53;stroke-linecap:butt;stroke-linejoin:round;stroke-miterlimit:10;stroke-dasharray:none;stroke-opacity:1"
           id="path74" /><path
           d="M 209.06,31.91 V 264.85"
           style="fill:none;stroke:#ebebeb;stroke-width:0.53;stroke-linecap:butt;stroke-linejoin:round;stroke-miterlimit:10;stroke-dasharray:none;stroke-opacity:1"
           id="path76" /><path
           d="M 35.98,42.5 H 282.52"
           style="fill:none;stroke:#ebebeb;stroke-width:1.07;stroke-linecap:butt;stroke-linejoin:round;stroke-miterlimit:10;stroke-dasharray:none;stroke-opacity:1"
           id="path78" /><path
           d="M 35.98,84.85 H 282.52"
           style="fill:none;stroke:#ebebeb;stroke-width:1.07;stroke-linecap:butt;stroke-linejoin:round;stroke-miterlimit:10;stroke-dasharray:none;stroke-opacity:1"
           id="path80" /><path
           d="M 35.98,127.2 H 282.52"
           style="fill:none;stroke:#ebebeb;stroke-width:1.07;stroke-linecap:butt;stroke-linejoin:round;stroke-miterlimit:10;stroke-dasharray:none;stroke-opacity:1"
           id="path82" /><path
           d="M 35.98,169.55 H 282.52"
           style="fill:none;stroke:#ebebeb;stroke-width:1.07;stroke-linecap:butt;stroke-linejoin:round;stroke-miterlimit:10;stroke-dasharray:none;stroke-opacity:1"
           id="path84" /><path
           d="M 35.98,211.91 H 282.52"
           style="fill:none;stroke:#ebebeb;stroke-width:1.07;stroke-linecap:butt;stroke-linejoin:round;stroke-miterlimit:10;stroke-dasharray:none;stroke-opacity:1"
           id="path86" /><path
           d="M 35.98,254.26 H 282.52"
           style="fill:none;stroke:#ebebeb;stroke-width:1.07;stroke-linecap:butt;stroke-linejoin:round;stroke-miterlimit:10;stroke-dasharray:none;stroke-opacity:1"
           id="path88" /><path
           d="M 96.99,31.91 V 264.85"
           style="fill:none;stroke:#ebebeb;stroke-width:1.07;stroke-linecap:butt;stroke-linejoin:round;stroke-miterlimit:10;stroke-dasharray:none;stroke-opacity:1"
           id="path90" /><path
           d="M 171.7,31.91 V 264.85"
           style="fill:none;stroke:#ebebeb;stroke-width:1.07;stroke-linecap:butt;stroke-linejoin:round;stroke-miterlimit:10;stroke-dasharray:none;stroke-opacity:1"
           id="path92" /><path
           d="M 246.41,31.91 V 264.85"
           style="fill:none;stroke:#ebebeb;stroke-width:1.07;stroke-linecap:butt;stroke-linejoin:round;stroke-miterlimit:10;stroke-dasharray:none;stroke-opacity:1"
           id="path94" /><path
           d="M 79.99,31.91 V 264.85"
           style="fill:none;stroke:#000000;stroke-width:1.07;stroke-linecap:butt;stroke-linejoin:round;stroke-miterlimit:10;stroke-dasharray:4.27, 4.27;stroke-dashoffset:0;stroke-opacity:1"
           id="path96" /><path
           d="m 47.19,42.5 h 0.43 0.44 0.44 0.44 0.44 0.44 0.44 0.43 0.44 0.44 0.44 0.44 0.44 0.44 0.43 0.44 0.44 0.44 0.44 0.44 0.44 0.43 0.44 0.44 0.44 0.44 0.44 0.44 0.43 0.44 0.44 0.44 0.44 0.44 0.44 0.44 0.43 0.44 0.44 0.44 0.44 l 0.44,0.01 h 0.44 0.43 l 0.44,0.01 0.44,0.01 h 0.44 l 0.44,0.02 0.44,0.02 0.44,0.02 0.43,0.02 0.44,0.04 0.44,0.04 0.44,0.06 0.44,0.07 0.44,0.08 0.44,0.1 0.43,0.12 0.44,0.14 0.44,0.17 0.44,0.19 0.44,0.22 0.44,0.25 0.44,0.29 0.43,0.33 0.44,0.35 0.44,0.39 0.44,0.43 0.44,0.46 0.44,0.5 0.44,0.52 0.43,0.56 0.44,0.57 0.44,0.59 0.44,0.61 0.44,0.61 0.44,0.62 0.44,0.61 0.44,0.6 0.43,0.59 0.44,0.56 0.44,0.55 0.44,0.51 0.44,0.49 0.44,0.45 0.44,0.41 0.43,0.38 0.44,0.34 0.44,0.32 0.44,0.29 0.44,0.26 0.44,0.25 0.44,0.22 0.43,0.22 0.44,0.21 0.44,0.21 0.44,0.21 0.44,0.22 0.44,0.23 0.44,0.25 0.43,0.26 0.44,0.28 0.44,0.3 0.44,0.32 0.44,0.35 0.44,0.36 0.44,0.39 0.43,0.41 0.44,0.43 0.44,0.46 0.44,0.49 0.44,0.5 0.44,0.53 0.44,0.56 0.44,0.58 0.43,0.61 0.44,0.63 0.44,0.65 0.44,0.68 0.44,0.69 0.44,0.71 0.44,0.73 0.43,0.74 0.44,0.76 0.44,0.77 0.44,0.78 0.44,0.8 0.44,0.81 0.44,0.83 0.43,0.85 0.44,0.88 0.44,0.89 0.44,0.92 0.44,0.94 0.44,0.98 0.44,1 0.43,1.03 0.44,1.06 0.44,1.09 0.44,1.11 0.44,1.14 0.44,1.16 0.44,1.17 0.43,1.19 0.44,1.2 0.44,1.21 0.44,1.22 0.44,1.22 0.44,1.22 0.44,1.23 0.44,1.22 0.43,1.23 0.44,1.23 0.44,1.23 0.44,1.23 0.44,1.24 0.44,1.24 0.44,1.25 0.43,1.25 0.44,1.27 0.44,1.27 0.44,1.28 0.44,1.29 0.44,1.3 0.44,1.3 0.43,1.3 0.44,1.31 0.44,1.3 0.44,1.31 0.44,1.3 0.44,1.29 0.44,1.28 0.43,1.28 0.44,1.27 0.44,1.26 0.44,1.26 0.44,1.25 0.44,1.26 0.44,1.26 0.43,1.27 0.44,1.28 0.44,1.3 0.44,1.31 0.44,1.34 0.44,1.37 0.44,1.38 0.43,1.42 0.44,1.43 0.44,1.46 0.44,1.49 0.44,1.5 0.44,1.51 0.44,1.53 0.44,1.53 0.43,1.53 0.44,1.54 0.44,1.53 0.44,1.51 0.44,1.51 0.44,1.49 0.44,1.47 0.43,1.44 0.44,1.42 0.44,1.38 0.44,1.35 0.44,1.3 0.44,1.25 0.44,1.2 0.43,1.15 0.44,1.09 0.44,1.02 0.44,0.94 0.44,0.88 0.44,0.81 0.44,0.75 0.43,0.67 0.44,0.62 0.44,0.56 0.44,0.5 0.44,0.45 0.44,0.4 0.44,0.38 0.43,0.34 0.44,0.31 0.44,0.28 0.44,0.26 0.44,0.23 0.44,0.21 0.44,0.18 0.44,0.14 0.43,0.11 0.44,0.08 0.44,0.03 0.44,-0.01 0.44,-0.07 0.44,-0.11 0.44,-0.15 0.43,-0.2 0.44,-0.23 0.44,-0.27 0.44,-0.31 0.44,-0.33 0.44,-0.35 0.44,-0.37 0.43,-0.37 0.44,-0.37 0.44,-0.38 0.44,-0.37 0.44,-0.37 0.44,-0.37 0.44,-0.36 0.43,-0.35 0.44,-0.36 0.44,-0.36 0.44,-0.36 0.44,-0.37 0.44,-0.37 0.44,-0.38 0.43,-0.39 0.44,-0.39 0.44,-0.4 0.44,-0.41 0.44,-0.4 0.44,-0.41 0.44,-0.41 0.44,-0.4 0.43,-0.39 0.44,-0.4 0.44,-0.38 0.44,-0.39 0.44,-0.38 0.44,-0.39 0.44,-0.39 0.43,-0.41 0.44,-0.43 0.44,-0.45 0.44,-0.49 0.44,-0.53 0.44,-0.58 0.44,-0.64 0.43,-0.69 0.44,-0.76 0.44,-0.83 0.44,-0.89 0.44,-0.97 0.44,-1.04 0.44,-1.11 0.43,-1.17 0.44,-1.23 0.44,-1.29 0.44,-1.34 0.44,-1.39 0.44,-1.42 0.44,-1.47 0.43,-1.49 0.44,-1.52 0.44,-1.54 0.44,-1.56 0.44,-1.57 0.44,-1.59 0.44,-1.59 0.43,-1.6 0.44,-1.61 0.44,-1.61 0.44,-1.62 0.44,-1.62 0.44,-1.62 0.44,-1.63 0.44,-1.62 0.43,-1.61 0.44,-1.61 0.44,-1.61 0.44,-1.59 0.44,-1.58 0.44,-1.57 0.44,-1.55 0.43,-1.54 0.44,-1.53 0.44,-1.51 0.44,-1.51 0.44,-1.49 0.44,-1.49 0.44,-1.48 0.43,-1.48 0.44,-1.49 0.44,-1.48 0.44,-1.49 0.44,-1.49 0.44,-1.49 0.44,-1.5 0.43,-1.51 0.44,-1.5 0.44,-1.49 0.44,-1.5 0.44,-1.48 0.44,-1.47 0.44,-1.45 0.43,-1.44 0.44,-1.4 0.44,-1.38 0.44,-1.34 0.44,-1.31 0.44,-1.27 0.44,-1.23 0.44,-1.19 0.43,-1.13 0.44,-1.08 0.44,-1.03 0.44,-0.98 0.44,-0.93 0.44,-0.88 0.44,-0.83 0.43,-0.77 0.44,-0.73 0.44,-0.68 0.44,-0.64 0.44,-0.61 0.44,-0.57 0.44,-0.54 0.43,-0.53 0.44,-0.49 0.44,-0.49 0.44,-0.48 0.44,-0.48 0.44,-0.47 0.44,-0.48 0.43,-0.48 0.44,-0.5 0.44,-0.5 0.44,-0.52 0.44,-0.54 0.44,-0.55 0.44,-0.56 0.43,-0.58 0.44,-0.58 0.44,-0.6 0.44,-0.6 0.44,-0.61 0.44,-0.61 0.44,-0.6 0.43,-0.6 0.44,-0.59 0.44,-0.57 0.44,-0.56 0.44,-0.54 0.44,-0.53 0.44,-0.51 0.44,-0.49 0.43,-0.47 0.44,-0.44 0.44,-0.43 0.44,-0.41 0.44,-0.39 0.44,-0.38 0.44,-0.36 0.43,-0.35 0.44,-0.34 0.44,-0.32 0.44,-0.32 0.44,-0.3 0.44,-0.3 0.44,-0.28 0.43,-0.28 0.44,-0.27 0.44,-0.26 0.44,-0.25 0.44,-0.23 0.44,-0.23 0.44,-0.22 0.43,-0.21 0.44,-0.19 0.44,-0.19 0.44,-0.18 0.44,-0.16 0.44,-0.16 0.44,-0.14 0.43,-0.14 0.44,-0.13 0.44,-0.12 0.44,-0.11 0.44,-0.1 0.44,-0.09 0.44,-0.09 0.44,-0.08 0.43,-0.07 0.44,-0.06 0.44,-0.06 0.44,-0.05 0.44,-0.05 0.44,-0.04 0.44,-0.03 0.43,-0.03 0.44,-0.03 0.44,-0.02 0.44,-0.01 0.44,-0.02 0.44,-0.01 0.44,-0.01 h 0.43 l 0.44,-0.01 0.44,-0.01 h 0.44 0.44 l 0.44,-0.01 0.44,-0.01 h 0.43 l 0.44,-0.01 0.44,-0.01 h 0.44 l 0.44,-0.01 0.44,-0.01 0.44,-0.01 0.43,-0.01 0.44,-0.01 0.44,-0.01 0.44,-0.01 0.44,-0.01 0.44,-0.01 0.44,-0.01 0.44,-0.01 0.43,-0.01 h 0.44 l 0.44,-0.01 0.44,-0.01 h 0.44 0.44 l 0.44,-0.01 h 0.43 0.44 0.44 l 0.44,-0.01 h 0.44 0.44 0.44 0.43 0.44 0.44 0.44 0.44 0.44 0.44 0.43 0.44 0.44 0.44 0.44 0.44 0.44 0.43 0.44 0.44 0.44 0.44 0.44 0.44 0.43 0.44 0.44 0.44 0.44 0.44 0.44 0.44 0.43 0.44 0.44 0.44 0.44 0.44 0.44 0.43 v 0 h -0.43 -0.44 -0.44 -0.44 -0.44 -0.44 -0.44 -0.43 -0.44 -0.44 -0.44 -0.44 -0.44 -0.44 -0.44 -0.43 -0.44 -0.44 -0.44 -0.44 -0.44 -0.44 -0.43 -0.44 -0.44 -0.44 -0.44 -0.44 -0.44 -0.43 -0.44 -0.44 -0.44 -0.44 -0.44 -0.44 -0.43 -0.44 -0.44 -0.44 -0.44 -0.44 -0.44 -0.43 -0.44 -0.44 -0.44 -0.44 -0.44 -0.44 -0.43 -0.44 -0.44 -0.44 -0.44 -0.44 -0.44 -0.44 -0.43 -0.44 -0.44 -0.44 -0.44 -0.44 -0.44 -0.43 -0.44 -0.44 -0.44 -0.44 -0.44 -0.44 -0.43 -0.44 -0.44 -0.44 -0.44 -0.44 -0.44 -0.43 -0.44 -0.44 -0.44 -0.44 -0.44 -0.44 -0.43 -0.44 -0.44 -0.44 -0.44 -0.44 -0.44 -0.44 -0.43 -0.44 -0.44 -0.44 -0.44 -0.44 -0.44 -0.43 -0.44 -0.44 -0.44 -0.44 -0.44 -0.44 -0.43 -0.44 -0.44 -0.44 -0.44 -0.44 -0.44 -0.43 -0.44 -0.44 -0.44 -0.44 -0.44 -0.44 -0.43 -0.44 -0.44 -0.44 -0.44 -0.44 -0.44 -0.44 -0.43 -0.44 -0.44 -0.44 -0.44 -0.44 -0.44 -0.43 -0.44 -0.44 -0.44 -0.44 -0.44 -0.44 -0.43 -0.44 -0.44 -0.44 -0.44 -0.44 -0.44 -0.43 -0.44 -0.44 -0.44 -0.44 -0.44 -0.44 -0.43 -0.44 -0.44 -0.44 -0.44 -0.44 -0.44 -0.43 -0.44 -0.44 -0.44 -0.44 -0.44 -0.44 -0.44 -0.43 -0.44 -0.44 -0.44 -0.44 -0.44 -0.44 -0.43 -0.44 -0.44 -0.44 -0.44 -0.44 -0.44 -0.43 -0.44 -0.44 -0.44 -0.44 -0.44 -0.44 -0.43 -0.44 -0.44 -0.44 -0.44 -0.44 -0.44 -0.43 -0.44 -0.44 -0.44 -0.44 -0.44 -0.44 -0.44 -0.43 -0.44 -0.44 -0.44 -0.44 -0.44 -0.44 -0.43 -0.44 -0.44 -0.44 -0.44 -0.44 -0.44 -0.43 -0.44 -0.44 -0.44 -0.44 -0.44 -0.44 -0.43 -0.44 -0.44 -0.44 -0.44 -0.44 -0.44 -0.43 -0.44 -0.44 -0.44 -0.44 -0.44 -0.44 -0.43 -0.44 -0.44 -0.44 -0.44 -0.44 -0.44 -0.44 -0.43 -0.44 -0.44 -0.44 -0.44 -0.44 -0.44 -0.43 -0.44 -0.44 -0.44 -0.44 -0.44 -0.44 -0.43 -0.44 -0.44 -0.44 -0.44 -0.44 -0.44 -0.43 -0.44 -0.44 -0.44 -0.44 -0.44 -0.44 -0.43 -0.44 -0.44 -0.44 -0.44 -0.44 -0.44 -0.44 -0.43 -0.44 -0.44 -0.44 -0.44 -0.44 -0.44 -0.43 -0.44 -0.44 -0.44 -0.44 -0.44 -0.44 -0.43 -0.44 -0.44 -0.44 -0.44 -0.44 -0.44 -0.43 -0.44 -0.44 -0.44 -0.44 -0.44 -0.44 -0.43 -0.44 -0.44 -0.44 -0.44 -0.44 -0.44 -0.44 -0.43 -0.44 -0.44 -0.44 -0.44 -0.44 -0.44 -0.43 -0.44 -0.44 -0.44 -0.44 -0.44 -0.44 -0.43 -0.44 -0.44 -0.44 -0.44 -0.44 -0.44 -0.43 -0.44 -0.44 -0.44 -0.44 -0.44 -0.44 -0.43 -0.44 -0.44 -0.44 -0.44 -0.44 -0.44 -0.43 -0.44 -0.44 -0.44 -0.44 -0.44 -0.44 -0.44 -0.43 -0.44 -0.44 -0.44 -0.44 -0.44 -0.44 -0.43 -0.44 -0.44 -0.44 -0.44 -0.44 -0.44 -0.43 -0.44 -0.44 -0.44 -0.44 -0.44 -0.44 -0.43 -0.44 H 99.82 99.38 98.94 98.5 98.06 97.63 97.19 96.75 96.31 95.87 95.43 94.99 94.55 94.12 93.68 93.24 92.8 92.36 91.92 91.48 91.05 90.61 90.17 89.73 89.29 88.85 88.41 87.98 87.54 87.1 86.66 86.22 85.78 85.34 84.91 84.47 84.03 83.59 83.15 82.71 82.27 81.84 81.4 80.96 80.52 80.08 79.64 79.2 78.76 78.33 77.89 77.45 77.01 76.57 76.13 75.69 75.26 74.82 74.38 73.94 73.5 73.06 72.62 72.19 71.75 71.31 70.87 70.43 69.99 69.55 69.12 68.68 68.24 67.8 67.36 66.92 66.48 66.05 65.61 65.17 64.73 64.29 63.85 63.41 62.98 62.54 62.1 61.66 61.22 60.78 60.34 59.9 59.47 59.03 58.59 58.15 57.71 57.27 56.83 56.4 55.96 55.52 55.08 54.64 54.2 53.76 53.33 52.89 52.45 52.01 51.57 51.13 50.69 50.26 49.82 49.38 48.94 48.5 48.06 47.62 Z"
           style="fill:#6ea8ca;fill-opacity:0.298;fill-rule:nonzero;stroke:none"
           id="path98" /><path
           d="m 47.19,42.5 h 0.43 0.44 0.44 0.44 0.44 0.44 0.44 0.43 0.44 0.44 0.44 0.44 0.44 0.44 0.43 0.44 0.44 0.44 0.44 0.44 0.44 0.43 0.44 0.44 0.44 0.44 0.44 0.44 0.43 0.44 0.44 0.44 0.44 0.44 0.44 0.44 0.43 0.44 0.44 0.44 0.44 l 0.44,0.01 h 0.44 0.43 l 0.44,0.01 0.44,0.01 h 0.44 l 0.44,0.02 0.44,0.02 0.44,0.02 0.43,0.02 0.44,0.04 0.44,0.04 0.44,0.06 0.44,0.07 0.44,0.08 0.44,0.1 0.43,0.12 0.44,0.14 0.44,0.17 0.44,0.19 0.44,0.22 0.44,0.25 0.44,0.29 0.43,0.33 0.44,0.35 0.44,0.39 0.44,0.43 0.44,0.46 0.44,0.5 0.44,0.52 0.43,0.56 0.44,0.57 0.44,0.59 0.44,0.61 0.44,0.61 0.44,0.62 0.44,0.61 0.44,0.6 0.43,0.59 0.44,0.56 0.44,0.55 0.44,0.51 0.44,0.49 0.44,0.45 0.44,0.41 0.43,0.38 0.44,0.34 0.44,0.32 0.44,0.29 0.44,0.26 0.44,0.25 0.44,0.22 0.43,0.22 0.44,0.21 0.44,0.21 0.44,0.21 0.44,0.22 0.44,0.23 0.44,0.25 0.43,0.26 0.44,0.28 0.44,0.3 0.44,0.32 0.44,0.35 0.44,0.36 0.44,0.39 0.43,0.41 0.44,0.43 0.44,0.46 0.44,0.49 0.44,0.5 0.44,0.53 0.44,0.56 0.44,0.58 0.43,0.61 0.44,0.63 0.44,0.65 0.44,0.68 0.44,0.69 0.44,0.71 0.44,0.73 0.43,0.74 0.44,0.76 0.44,0.77 0.44,0.78 0.44,0.8 0.44,0.81 0.44,0.83 0.43,0.85 0.44,0.88 0.44,0.89 0.44,0.92 0.44,0.94 0.44,0.98 0.44,1 0.43,1.03 0.44,1.06 0.44,1.09 0.44,1.11 0.44,1.14 0.44,1.16 0.44,1.17 0.43,1.19 0.44,1.2 0.44,1.21 0.44,1.22 0.44,1.22 0.44,1.22 0.44,1.23 0.44,1.22 0.43,1.23 0.44,1.23 0.44,1.23 0.44,1.23 0.44,1.24 0.44,1.24 0.44,1.25 0.43,1.25 0.44,1.27 0.44,1.27 0.44,1.28 0.44,1.29 0.44,1.3 0.44,1.3 0.43,1.3 0.44,1.31 0.44,1.3 0.44,1.31 0.44,1.3 0.44,1.29 0.44,1.28 0.43,1.28 0.44,1.27 0.44,1.26 0.44,1.26 0.44,1.25 0.44,1.26 0.44,1.26 0.43,1.27 0.44,1.28 0.44,1.3 0.44,1.31 0.44,1.34 0.44,1.37 0.44,1.38 0.43,1.42 0.44,1.43 0.44,1.46 0.44,1.49 0.44,1.5 0.44,1.51 0.44,1.53 0.44,1.53 0.43,1.53 0.44,1.54 0.44,1.53 0.44,1.51 0.44,1.51 0.44,1.49 0.44,1.47 0.43,1.44 0.44,1.42 0.44,1.38 0.44,1.35 0.44,1.3 0.44,1.25 0.44,1.2 0.43,1.15 0.44,1.09 0.44,1.02 0.44,0.94 0.44,0.88 0.44,0.81 0.44,0.75 0.43,0.67 0.44,0.62 0.44,0.56 0.44,0.5 0.44,0.45 0.44,0.4 0.44,0.38 0.43,0.34 0.44,0.31 0.44,0.28 0.44,0.26 0.44,0.23 0.44,0.21 0.44,0.18 0.44,0.14 0.43,0.11 0.44,0.08 0.44,0.03 0.44,-0.01 0.44,-0.07 0.44,-0.11 0.44,-0.15 0.43,-0.2 0.44,-0.23 0.44,-0.27 0.44,-0.31 0.44,-0.33 0.44,-0.35 0.44,-0.37 0.43,-0.37 0.44,-0.37 0.44,-0.38 0.44,-0.37 0.44,-0.37 0.44,-0.37 0.44,-0.36 0.43,-0.35 0.44,-0.36 0.44,-0.36 0.44,-0.36 0.44,-0.37 0.44,-0.37 0.44,-0.38 0.43,-0.39 0.44,-0.39 0.44,-0.4 0.44,-0.41 0.44,-0.4 0.44,-0.41 0.44,-0.41 0.44,-0.4 0.43,-0.39 0.44,-0.4 0.44,-0.38 0.44,-0.39 0.44,-0.38 0.44,-0.39 0.44,-0.39 0.43,-0.41 0.44,-0.43 0.44,-0.45 0.44,-0.49 0.44,-0.53 0.44,-0.58 0.44,-0.64 0.43,-0.69 0.44,-0.76 0.44,-0.83 0.44,-0.89 0.44,-0.97 0.44,-1.04 0.44,-1.11 0.43,-1.17 0.44,-1.23 0.44,-1.29 0.44,-1.34 0.44,-1.39 0.44,-1.42 0.44,-1.47 0.43,-1.49 0.44,-1.52 0.44,-1.54 0.44,-1.56 0.44,-1.57 0.44,-1.59 0.44,-1.59 0.43,-1.6 0.44,-1.61 0.44,-1.61 0.44,-1.62 0.44,-1.62 0.44,-1.62 0.44,-1.63 0.44,-1.62 0.43,-1.61 0.44,-1.61 0.44,-1.61 0.44,-1.59 0.44,-1.58 0.44,-1.57 0.44,-1.55 0.43,-1.54 0.44,-1.53 0.44,-1.51 0.44,-1.51 0.44,-1.49 0.44,-1.49 0.44,-1.48 0.43,-1.48 0.44,-1.49 0.44,-1.48 0.44,-1.49 0.44,-1.49 0.44,-1.49 0.44,-1.5 0.43,-1.51 0.44,-1.5 0.44,-1.49 0.44,-1.5 0.44,-1.48 0.44,-1.47 0.44,-1.45 0.43,-1.44 0.44,-1.4 0.44,-1.38 0.44,-1.34 0.44,-1.31 0.44,-1.27 0.44,-1.23 0.44,-1.19 0.43,-1.13 0.44,-1.08 0.44,-1.03 0.44,-0.98 0.44,-0.93 0.44,-0.88 0.44,-0.83 0.43,-0.77 0.44,-0.73 0.44,-0.68 0.44,-0.64 0.44,-0.61 0.44,-0.57 0.44,-0.54 0.43,-0.53 0.44,-0.49 0.44,-0.49 0.44,-0.48 0.44,-0.48 0.44,-0.47 0.44,-0.48 0.43,-0.48 0.44,-0.5 0.44,-0.5 0.44,-0.52 0.44,-0.54 0.44,-0.55 0.44,-0.56 0.43,-0.58 0.44,-0.58 0.44,-0.6 0.44,-0.6 0.44,-0.61 0.44,-0.61 0.44,-0.6 0.43,-0.6 0.44,-0.59 0.44,-0.57 0.44,-0.56 0.44,-0.54 0.44,-0.53 0.44,-0.51 0.44,-0.49 0.43,-0.47 0.44,-0.44 0.44,-0.43 0.44,-0.41 0.44,-0.39 0.44,-0.38 0.44,-0.36 0.43,-0.35 0.44,-0.34 0.44,-0.32 0.44,-0.32 0.44,-0.3 0.44,-0.3 0.44,-0.28 0.43,-0.28 0.44,-0.27 0.44,-0.26 0.44,-0.25 0.44,-0.23 0.44,-0.23 0.44,-0.22 0.43,-0.21 0.44,-0.19 0.44,-0.19 0.44,-0.18 0.44,-0.16 0.44,-0.16 0.44,-0.14 0.43,-0.14 0.44,-0.13 0.44,-0.12 0.44,-0.11 0.44,-0.1 0.44,-0.09 0.44,-0.09 0.44,-0.08 0.43,-0.07 0.44,-0.06 0.44,-0.06 0.44,-0.05 0.44,-0.05 0.44,-0.04 0.44,-0.03 0.43,-0.03 0.44,-0.03 0.44,-0.02 0.44,-0.01 0.44,-0.02 0.44,-0.01 0.44,-0.01 h 0.43 l 0.44,-0.01 0.44,-0.01 h 0.44 0.44 l 0.44,-0.01 0.44,-0.01 h 0.43 l 0.44,-0.01 0.44,-0.01 h 0.44 l 0.44,-0.01 0.44,-0.01 0.44,-0.01 0.43,-0.01 0.44,-0.01 0.44,-0.01 0.44,-0.01 0.44,-0.01 0.44,-0.01 0.44,-0.01 0.44,-0.01 0.43,-0.01 h 0.44 l 0.44,-0.01 0.44,-0.01 h 0.44 0.44 l 0.44,-0.01 h 0.43 0.44 0.44 l 0.44,-0.01 h 0.44 0.44 0.44 0.43 0.44 0.44 0.44 0.44 0.44 0.44 0.43 0.44 0.44 0.44 0.44 0.44 0.44 0.43 0.44 0.44 0.44 0.44 0.44 0.44 0.43 0.44 0.44 0.44 0.44 0.44 0.44 0.44 0.43 0.44 0.44 0.44 0.44 0.44 0.44 0.43"
           style="fill:none;stroke:#333333;stroke-width:2.13;stroke-linecap:round;stroke-linejoin:round;stroke-miterlimit:10;stroke-dasharray:none;stroke-opacity:1"
           id="path100" /><path
           d="M 35.98,31.91 H 282.52 V 264.85 H 35.98 Z"
           style="fill:none;stroke:#333333;stroke-width:1.07;stroke-linecap:round;stroke-linejoin:round;stroke-miterlimit:10;stroke-dasharray:none;stroke-opacity:1"
           id="path102" /></g></g><g
       id="g104" /><g
       id="g106" /><g
       id="g108" /><g
       id="g110" /><g
       id="g112" /><g
       id="g114" /><g
       id="g116" /><g
       id="g118" /><g
       id="g120" /><g
       id="g122" /><g
       id="g124" /><g
       id="g126" /><g
       id="g128" /><g
       id="g130" /><g
       id="g132" /><g
       id="g134"><text
         transform="matrix(1,0,0,-1,18.54,39.27)"
         style="font-variant:normal;font-weight:normal;font-size:9px;font-family:Helvetica;-inkscape-font-specification:Helvetica;writing-mode:lr-tb;fill:#4d4d4d;fill-opacity:1;fill-rule:nonzero;stroke:none"
         id="text138"><tspan
           x="0 5.0040002 7.506"
           y="0"
           sodipodi:role="line"
           id="tspan136">0.0</tspan></text><text
         transform="matrix(1,0,0,-1,18.54,81.62)"
         style="font-variant:normal;font-weight:normal;font-size:9px;font-family:Helvetica;-inkscape-font-specification:Helvetica;writing-mode:lr-tb;fill:#4d4d4d;fill-opacity:1;fill-rule:nonzero;stroke:none"
         id="text142"><tspan
           x="0 5.0040002 7.506"
           y="0"
           sodipodi:role="line"
           id="tspan140">0.1</tspan></text><text
         transform="matrix(1,0,0,-1,18.54,123.97)"
         style="font-variant:normal;font-weight:normal;font-size:9px;font-family:Helvetica;-inkscape-font-specification:Helvetica;writing-mode:lr-tb;fill:#4d4d4d;fill-opacity:1;fill-rule:nonzero;stroke:none"
         id="text146"><tspan
           x="0 5.0040002 7.506"
           y="0"
           sodipodi:role="line"
           id="tspan144">0.2</tspan></text><text
         transform="matrix(1,0,0,-1,18.54,166.32)"
         style="font-variant:normal;font-weight:normal;font-size:9px;font-family:Helvetica;-inkscape-font-specification:Helvetica;writing-mode:lr-tb;fill:#4d4d4d;fill-opacity:1;fill-rule:nonzero;stroke:none"
         id="text150"><tspan
           x="0 5.0040002 7.506"
           y="0"
           sodipodi:role="line"
           id="tspan148">0.3</tspan></text><text
         transform="matrix(1,0,0,-1,18.54,208.68)"
         style="font-variant:normal;font-weight:normal;font-size:9px;font-family:Helvetica;-inkscape-font-specification:Helvetica;writing-mode:lr-tb;fill:#4d4d4d;fill-opacity:1;fill-rule:nonzero;stroke:none"
         id="text154"><tspan
           x="0 5.0040002 7.506"
           y="0"
           sodipodi:role="line"
           id="tspan152">0.4</tspan></text><text
         transform="matrix(1,0,0,-1,18.54,251.03)"
         style="font-variant:normal;font-weight:normal;font-size:9px;font-family:Helvetica;-inkscape-font-specification:Helvetica;writing-mode:lr-tb;fill:#4d4d4d;fill-opacity:1;fill-rule:nonzero;stroke:none"
         id="text158"><tspan
           x="0 5.0040002 7.506"
           y="0"
           sodipodi:role="line"
           id="tspan156">0.5</tspan></text></g><g
       id="g160" /><g
       id="g162"><path
         d="m 33.24,42.5 h 2.74"
         style="fill:none;stroke:#333333;stroke-width:1.07;stroke-linecap:butt;stroke-linejoin:round;stroke-miterlimit:10;stroke-dasharray:none;stroke-opacity:1"
         id="path164" /><path
         d="m 33.24,84.85 h 2.74"
         style="fill:none;stroke:#333333;stroke-width:1.07;stroke-linecap:butt;stroke-linejoin:round;stroke-miterlimit:10;stroke-dasharray:none;stroke-opacity:1"
         id="path166" /><path
         d="m 33.24,127.2 h 2.74"
         style="fill:none;stroke:#333333;stroke-width:1.07;stroke-linecap:butt;stroke-linejoin:round;stroke-miterlimit:10;stroke-dasharray:none;stroke-opacity:1"
         id="path168" /><path
         d="m 33.24,169.55 h 2.74"
         style="fill:none;stroke:#333333;stroke-width:1.07;stroke-linecap:butt;stroke-linejoin:round;stroke-miterlimit:10;stroke-dasharray:none;stroke-opacity:1"
         id="path170" /><path
         d="m 33.24,211.91 h 2.74"
         style="fill:none;stroke:#333333;stroke-width:1.07;stroke-linecap:butt;stroke-linejoin:round;stroke-miterlimit:10;stroke-dasharray:none;stroke-opacity:1"
         id="path172" /><path
         d="m 33.24,254.26 h 2.74"
         style="fill:none;stroke:#333333;stroke-width:1.07;stroke-linecap:butt;stroke-linejoin:round;stroke-miterlimit:10;stroke-dasharray:none;stroke-opacity:1"
         id="path174" /></g><g
       id="g176" /><g
       id="g178" /><g
       id="g180" /><g
       id="g182" /><g
       id="g184" /><g
       id="g186" /><g
       id="g188" /><g
       id="g190" /><g
       id="g192" /><g
       id="g194"><path
         d="m 96.99,29.17 v 2.74"
         style="fill:none;stroke:#333333;stroke-width:1.07;stroke-linecap:butt;stroke-linejoin:round;stroke-miterlimit:10;stroke-dasharray:none;stroke-opacity:1"
         id="path196" /><path
         d="m 171.7,29.17 v 2.74"
         style="fill:none;stroke:#333333;stroke-width:1.07;stroke-linecap:butt;stroke-linejoin:round;stroke-miterlimit:10;stroke-dasharray:none;stroke-opacity:1"
         id="path198" /><path
         d="m 246.41,29.17 v 2.74"
         style="fill:none;stroke:#333333;stroke-width:1.07;stroke-linecap:butt;stroke-linejoin:round;stroke-miterlimit:10;stroke-dasharray:none;stroke-opacity:1"
         id="path200" /></g><g
       id="g202" /><g
       id="g204"><text
         transform="matrix(1,0,0,-1,84.36,20.52)"
         style="font-variant:normal;font-weight:normal;font-size:9px;font-family:Helvetica;-inkscape-font-specification:Helvetica;writing-mode:lr-tb;fill:#4d4d4d;fill-opacity:1;fill-rule:nonzero;stroke:none"
         id="text208"><tspan
           x="0 5.0040002 10.008 15.264 20.268"
           y="0"
           sodipodi:role="line"
           id="tspan206">1e−01</tspan></text><text
         transform="matrix(1,0,0,-1,159.07,20.52)"
         style="font-variant:normal;font-weight:normal;font-size:9px;font-family:Helvetica;-inkscape-font-specification:Helvetica;writing-mode:lr-tb;fill:#4d4d4d;fill-opacity:1;fill-rule:nonzero;stroke:none"
         id="text212"><tspan
           x="0 5.0040002 10.008 15.264 20.268"
           y="0"
           sodipodi:role="line"
           id="tspan210">1e+02</tspan></text><text
         transform="matrix(1,0,0,-1,233.77,20.52)"
         style="font-variant:normal;font-weight:normal;font-size:9px;font-family:Helvetica;-inkscape-font-specification:Helvetica;writing-mode:lr-tb;fill:#4d4d4d;fill-opacity:1;fill-rule:nonzero;stroke:none"
         id="text216"><tspan
           x="0 5.0040002 10.008 15.264 20.268"
           y="0"
           sodipodi:role="line"
           id="tspan214">1e+05</tspan></text></g><g
       id="g218" /><g
       id="g220" /><g
       id="g222" /><g
       id="g224" /><g
       id="g226" /><g
       id="g228"><text
         transform="matrix(1,0,0,-1,73.42,7.9)"
         style="font-variant:normal;font-weight:normal;font-size:11px;font-family:Helvetica;-inkscape-font-specification:Helvetica;writing-mode:lr-tb;fill:#000000;fill-opacity:1;fill-rule:nonzero;stroke:none"
         id="text232"><tspan
           x="0 9.1630001 15.279 20.778999 23.221001 32.273998 38.389999 47.553001 50.611 56.727001 62.842999 66.505997 69.564003 75.064003 81.18 87.295998 93.412003 95.853996 98.912003 101.354 107.47 113.586 116.644 125.807 131.923 138.039 144.155 147.213 155.155 162.492"
           y="0"
           sodipodi:role="line"
           id="tspan230">Maximum per condition mean CPM</tspan></text></g><g
       id="g234" /><g
       id="g236"><text
         transform="matrix(0,1,1,0,13.38,99.77)"
         style="font-variant:normal;font-weight:normal;font-size:11px;font-family:Helvetica;-inkscape-font-specification:Helvetica;writing-mode:lr-tb;fill:#000000;fill-opacity:1;fill-rule:nonzero;stroke:none"
         id="text240"><tspan
           x="0 6.7210002 10.384 16.5 22.615999 28.732 34.848 40.964001 46.464001 51.964001 55.021999 61.138 64.195999 67.253998 73.370003 79.486 85.601997 91.718002"
           y="0"
           sodipodi:role="line"
           id="tspan238">Frequency of genes</tspan></text></g><g
       id="g242" /><g
       id="g244" /><g
       id="g246" /><g
       id="g248" /><g
       id="g250" /><g
       id="g258" /><g
       id="g260" /><g
       id="g262" /><g
       id="g264" /><g
       id="g266" /><g
       id="g268" /><g
       id="g270" /><g
       id="g272"><text
         transform="matrix(1,0,0,-1,5.05,272.92)"
         style="font-variant:normal;font-weight:bold;font-size:14px;font-family:Helvetica;-inkscape-font-specification:Helvetica-Bold;writing-mode:lr-tb;fill:#000000;fill-opacity:1;fill-rule:nonzero;stroke:none"
         id="text276"><tspan
           x="0"
           y="0"
           id="tspan274">A</tspan></text></g><g
       id="g278" /><g
       id="g280" /><g
       id="g282" /><g
       id="g284" /><g
       id="g286" /><g
       id="g288" /><g
       id="g290" /><g
       id="g292" /><g
       id="g294" /><g
       id="g306" /><g
       id="g308"><g
         id="g310"
         clip-path="url(#clipPath314)"><path
           d="M 323.98,31.91 H 570.52 V 264.85 H 323.98 Z"
           style="fill:#ffffff;fill-opacity:1;fill-rule:nonzero;stroke:none"
           id="path316" /><path
           d="M 323.98,63.67 H 570.52"
           style="fill:none;stroke:#ebebeb;stroke-width:0.53;stroke-linecap:butt;stroke-linejoin:round;stroke-miterlimit:10;stroke-dasharray:none;stroke-opacity:1"
           id="path318" /><path
           d="M 323.98,106.03 H 570.52"
           style="fill:none;stroke:#ebebeb;stroke-width:0.53;stroke-linecap:butt;stroke-linejoin:round;stroke-miterlimit:10;stroke-dasharray:none;stroke-opacity:1"
           id="path320" /><path
           d="M 323.98,148.38 H 570.52"
           style="fill:none;stroke:#ebebeb;stroke-width:0.53;stroke-linecap:butt;stroke-linejoin:round;stroke-miterlimit:10;stroke-dasharray:none;stroke-opacity:1"
           id="path322" /><path
           d="M 323.98,190.73 H 570.52"
           style="fill:none;stroke:#ebebeb;stroke-width:0.53;stroke-linecap:butt;stroke-linejoin:round;stroke-miterlimit:10;stroke-dasharray:none;stroke-opacity:1"
           id="path324" /><path
           d="M 323.98,233.08 H 570.52"
           style="fill:none;stroke:#ebebeb;stroke-width:0.53;stroke-linecap:butt;stroke-linejoin:round;stroke-miterlimit:10;stroke-dasharray:none;stroke-opacity:1"
           id="path326" /><path
           d="M 347.64,31.91 V 264.85"
           style="fill:none;stroke:#ebebeb;stroke-width:0.53;stroke-linecap:butt;stroke-linejoin:round;stroke-miterlimit:10;stroke-dasharray:none;stroke-opacity:1"
           id="path328" /><path
           d="M 422.35,31.91 V 264.85"
           style="fill:none;stroke:#ebebeb;stroke-width:0.53;stroke-linecap:butt;stroke-linejoin:round;stroke-miterlimit:10;stroke-dasharray:none;stroke-opacity:1"
           id="path330" /><path
           d="M 497.06,31.91 V 264.85"
           style="fill:none;stroke:#ebebeb;stroke-width:0.53;stroke-linecap:butt;stroke-linejoin:round;stroke-miterlimit:10;stroke-dasharray:none;stroke-opacity:1"
           id="path332" /><path
           d="M 323.98,42.5 H 570.52"
           style="fill:none;stroke:#ebebeb;stroke-width:1.07;stroke-linecap:butt;stroke-linejoin:round;stroke-miterlimit:10;stroke-dasharray:none;stroke-opacity:1"
           id="path334" /><path
           d="M 323.98,84.85 H 570.52"
           style="fill:none;stroke:#ebebeb;stroke-width:1.07;stroke-linecap:butt;stroke-linejoin:round;stroke-miterlimit:10;stroke-dasharray:none;stroke-opacity:1"
           id="path336" /><path
           d="M 323.98,127.2 H 570.52"
           style="fill:none;stroke:#ebebeb;stroke-width:1.07;stroke-linecap:butt;stroke-linejoin:round;stroke-miterlimit:10;stroke-dasharray:none;stroke-opacity:1"
           id="path338" /><path
           d="M 323.98,169.55 H 570.52"
           style="fill:none;stroke:#ebebeb;stroke-width:1.07;stroke-linecap:butt;stroke-linejoin:round;stroke-miterlimit:10;stroke-dasharray:none;stroke-opacity:1"
           id="path340" /><path
           d="M 323.98,211.91 H 570.52"
           style="fill:none;stroke:#ebebeb;stroke-width:1.07;stroke-linecap:butt;stroke-linejoin:round;stroke-miterlimit:10;stroke-dasharray:none;stroke-opacity:1"
           id="path342" /><path
           d="M 323.98,254.26 H 570.52"
           style="fill:none;stroke:#ebebeb;stroke-width:1.07;stroke-linecap:butt;stroke-linejoin:round;stroke-miterlimit:10;stroke-dasharray:none;stroke-opacity:1"
           id="path344" /><path
           d="M 384.99,31.91 V 264.85"
           style="fill:none;stroke:#ebebeb;stroke-width:1.07;stroke-linecap:butt;stroke-linejoin:round;stroke-miterlimit:10;stroke-dasharray:none;stroke-opacity:1"
           id="path346" /><path
           d="M 459.7,31.91 V 264.85"
           style="fill:none;stroke:#ebebeb;stroke-width:1.07;stroke-linecap:butt;stroke-linejoin:round;stroke-miterlimit:10;stroke-dasharray:none;stroke-opacity:1"
           id="path348" /><path
           d="M 534.41,31.91 V 264.85"
           style="fill:none;stroke:#ebebeb;stroke-width:1.07;stroke-linecap:butt;stroke-linejoin:round;stroke-miterlimit:10;stroke-dasharray:none;stroke-opacity:1"
           id="path350" /><path
           d="M 386.84,31.91 V 264.85"
           style="fill:none;stroke:#000000;stroke-width:1.07;stroke-linecap:butt;stroke-linejoin:round;stroke-miterlimit:10;stroke-dasharray:4.27, 4.27;stroke-dashoffset:0;stroke-opacity:1"
           id="path352" /><path
           d="m 335.19,42.5 h 0.43 0.44 0.44 0.44 0.44 0.44 0.44 0.43 0.44 0.44 0.44 0.44 0.44 0.44 0.43 0.44 0.44 0.44 0.44 0.44 0.44 0.43 0.44 0.44 0.44 0.44 0.44 0.44 0.43 0.44 0.44 0.44 0.44 0.44 0.44 0.44 0.43 0.44 0.44 0.44 0.44 0.44 0.44 0.43 0.44 0.44 0.44 0.44 0.44 0.44 0.43 0.44 0.44 0.44 l 0.44,0.01 h 0.44 l 0.44,0.01 0.43,0.01 0.44,0.01 0.44,0.02 0.44,0.02 0.44,0.03 0.44,0.04 0.44,0.05 0.43,0.06 0.44,0.08 0.44,0.09 0.44,0.11 0.44,0.14 0.44,0.15 0.44,0.17 0.43,0.19 0.44,0.21 0.44,0.22 0.44,0.23 0.44,0.24 0.44,0.23 0.44,0.23 0.44,0.21 0.43,0.19 0.44,0.16 0.44,0.13 0.44,0.11 0.44,0.07 0.44,0.04 0.44,0.01 h 0.43 l 0.44,-0.03 0.44,-0.03 0.44,-0.04 0.44,-0.03 0.44,-0.01 h 0.44 l 0.43,0.02 0.44,0.04 0.44,0.07 0.44,0.1 0.44,0.11 0.44,0.14 0.44,0.16 0.43,0.16 0.44,0.18 0.44,0.18 0.44,0.18 0.44,0.19 0.44,0.19 0.44,0.19 0.43,0.19 0.44,0.19 0.44,0.2 0.44,0.2 0.44,0.22 0.44,0.22 0.44,0.24 0.44,0.26 0.43,0.27 0.44,0.3 0.44,0.32 0.44,0.35 0.44,0.37 0.44,0.39 0.44,0.42 0.43,0.43 0.44,0.45 0.44,0.46 0.44,0.48 0.44,0.48 0.44,0.48 0.44,0.47 0.43,0.47 0.44,0.46 0.44,0.44 0.44,0.43 0.44,0.41 0.44,0.39 0.44,0.37 0.43,0.36 0.44,0.34 0.44,0.33 0.44,0.32 0.44,0.31 0.44,0.31 0.44,0.32 0.43,0.33 0.44,0.35 0.44,0.37 0.44,0.41 0.44,0.45 0.44,0.49 0.44,0.55 0.44,0.61 0.43,0.67 0.44,0.71 0.44,0.77 0.44,0.81 0.44,0.84 0.44,0.87 0.44,0.88 0.43,0.89 0.44,0.88 0.44,0.87 0.44,0.84 0.44,0.83 0.44,0.8 0.44,0.78 0.43,0.77 0.44,0.75 0.44,0.76 0.44,0.76 0.44,0.79 0.44,0.81 0.44,0.84 0.43,0.89 0.44,0.93 0.44,0.97 0.44,1.02 0.44,1.07 0.44,1.1 0.44,1.13 0.43,1.15 0.44,1.16 0.44,1.18 0.44,1.17 0.44,1.18 0.44,1.17 0.44,1.15 0.43,1.13 0.44,1.11 0.44,1.09 0.44,1.07 0.44,1.04 0.44,1.02 0.44,0.99 0.44,0.96 0.43,0.94 0.44,0.93 0.44,0.91 0.44,0.91 0.44,0.92 0.44,0.92 0.44,0.94 0.43,0.96 0.44,0.99 0.44,1.02 0.44,1.05 0.44,1.08 0.44,1.1 0.44,1.13 0.43,1.14 0.44,1.17 0.44,1.17 0.44,1.18 0.44,1.19 0.44,1.19 0.44,1.2 0.43,1.22 0.44,1.22 0.44,1.24 0.44,1.26 0.44,1.29 0.44,1.32 0.44,1.36 0.43,1.39 0.44,1.44 0.44,1.49 0.44,1.53 0.44,1.59 0.44,1.64 0.44,1.71 0.44,1.78 0.43,1.85 0.44,1.92 0.44,2 0.44,2.08 0.44,2.17 0.44,2.26 0.44,2.36 0.43,2.46 0.44,2.58 0.44,2.69 0.44,2.79 0.44,2.9 0.44,3 0.44,3.09 0.43,3.17 0.44,3.23 0.44,3.29 0.44,3.31 0.44,3.31 0.44,3.29 0.44,3.25 0.43,3.17 0.44,3.08 0.44,2.96 0.44,2.82 0.44,2.66 0.44,2.48 0.44,2.29 0.43,2.1 0.44,1.9 0.44,1.71 0.44,1.52 0.44,1.33 0.44,1.15 0.44,0.96 0.44,0.8 0.43,0.65 0.44,0.51 0.44,0.4 0.44,0.29 0.44,0.2 0.44,0.11 0.44,0.03 0.43,-0.05 0.44,-0.12 0.44,-0.19 0.44,-0.25 0.44,-0.32 0.44,-0.39 0.44,-0.46 0.43,-0.53 0.44,-0.59 0.44,-0.66 0.44,-0.71 0.44,-0.76 0.44,-0.78 0.44,-0.81 0.43,-0.83 0.44,-0.83 0.44,-0.83 0.44,-0.83 0.44,-0.85 0.44,-0.87 0.44,-0.91 0.43,-0.98 0.44,-1.06 0.44,-1.18 0.44,-1.32 0.44,-1.49 0.44,-1.69 0.44,-1.91 0.43,-2.13 0.44,-2.34 0.44,-2.54 0.44,-2.72 0.44,-2.88 0.44,-3.01 0.44,-3.11 0.44,-3.18 0.43,-3.19 0.44,-3.16 0.44,-3.12 0.44,-3.04 0.44,-2.93 0.44,-2.83 0.44,-2.69 0.43,-2.57 0.44,-2.42 0.44,-2.29 0.44,-2.18 0.44,-2.09 0.44,-2.01 0.44,-1.95 0.43,-1.92 0.44,-1.91 0.44,-1.91 0.44,-1.95 0.44,-1.99 0.44,-2.06 0.44,-2.12 0.43,-2.2 0.44,-2.26 0.44,-2.33 0.44,-2.38 0.44,-2.44 0.44,-2.46 0.44,-2.49 0.43,-2.48 0.44,-2.47 0.44,-2.45 0.44,-2.43 0.44,-2.38 0.44,-2.35 0.44,-2.31 0.44,-2.26 0.43,-2.23 0.44,-2.19 0.44,-2.15 0.44,-2.12 0.44,-2.09 0.44,-2.05 0.44,-2.02 0.43,-1.97 0.44,-1.92 0.44,-1.87 0.44,-1.81 0.44,-1.76 0.44,-1.69 0.44,-1.62 0.43,-1.55 0.44,-1.49 0.44,-1.42 0.44,-1.35 0.44,-1.3 0.44,-1.24 0.44,-1.21 0.43,-1.17 0.44,-1.14 0.44,-1.11 0.44,-1.1 0.44,-1.08 0.44,-1.06 0.44,-1.06 0.43,-1.04 0.44,-1.02 0.44,-1.01 0.44,-0.97 0.44,-0.95 0.44,-0.92 0.44,-0.87 0.43,-0.82 0.44,-0.78 0.44,-0.73 0.44,-0.67 0.44,-0.63 0.44,-0.59 0.44,-0.54 0.44,-0.49 0.43,-0.46 0.44,-0.43 0.44,-0.4 0.44,-0.38 0.44,-0.36 0.44,-0.34 0.44,-0.33 0.43,-0.32 0.44,-0.3 0.44,-0.3 0.44,-0.28 0.44,-0.27 0.44,-0.26 0.44,-0.25 0.43,-0.23 0.44,-0.22 0.44,-0.21 0.44,-0.19 0.44,-0.17 0.44,-0.16 0.44,-0.15 0.43,-0.14 0.44,-0.14 0.44,-0.13 0.44,-0.12 0.44,-0.12 0.44,-0.12 0.44,-0.13 0.43,-0.12 0.44,-0.12 0.44,-0.13 0.44,-0.12 0.44,-0.13 0.44,-0.12 0.44,-0.12 0.44,-0.11 0.43,-0.11 0.44,-0.1 0.44,-0.1 0.44,-0.08 0.44,-0.08 0.44,-0.07 0.44,-0.06 0.43,-0.05 0.44,-0.05 0.44,-0.03 0.44,-0.04 0.44,-0.02 0.44,-0.02 0.44,-0.02 0.43,-0.01 0.44,-0.01 0.44,-0.01 0.44,-0.01 h 0.44 0.44 l 0.44,-0.01 h 0.43 0.44 0.44 0.44 0.44 0.44 0.44 0.43 0.44 0.44 0.44 0.44 0.44 0.44 0.44 0.43 0.44 0.44 0.44 0.44 0.44 0.44 0.43 0.44 0.44 0.44 0.44 0.44 0.44 0.43 0.44 0.44 0.44 0.44 0.44 0.44 0.43 0.44 0.44 0.44 0.44 0.44 0.44 0.43 0.44 0.44 0.44 0.44 0.44 0.44 0.43 0.44 0.44 0.44 0.44 0.44 0.44 0.44 0.43 0.44 0.44 0.44 0.44 0.44 0.44 0.43 v 0 h -0.43 -0.44 -0.44 -0.44 -0.44 -0.44 -0.44 -0.43 -0.44 -0.44 -0.44 -0.44 -0.44 -0.44 -0.44 -0.43 -0.44 -0.44 -0.44 -0.44 -0.44 -0.44 -0.43 -0.44 -0.44 -0.44 -0.44 -0.44 -0.44 -0.43 -0.44 -0.44 -0.44 -0.44 -0.44 -0.44 -0.43 -0.44 -0.44 -0.44 -0.44 -0.44 -0.44 -0.43 -0.44 -0.44 -0.44 -0.44 -0.44 -0.44 -0.43 -0.44 -0.44 -0.44 -0.44 -0.44 -0.44 -0.44 -0.43 -0.44 -0.44 -0.44 -0.44 -0.44 -0.44 -0.43 -0.44 -0.44 -0.44 -0.44 -0.44 -0.44 -0.43 -0.44 -0.44 -0.44 -0.44 -0.44 -0.44 -0.43 -0.44 -0.44 -0.44 -0.44 -0.44 -0.44 -0.43 -0.44 -0.44 -0.44 -0.44 -0.44 -0.44 -0.44 -0.43 -0.44 -0.44 -0.44 -0.44 -0.44 -0.44 -0.43 -0.44 -0.44 -0.44 -0.44 -0.44 -0.44 -0.43 -0.44 -0.44 -0.44 -0.44 -0.44 -0.44 -0.43 -0.44 -0.44 -0.44 -0.44 -0.44 -0.44 -0.43 -0.44 -0.44 -0.44 -0.44 -0.44 -0.44 -0.44 -0.43 -0.44 -0.44 -0.44 -0.44 -0.44 -0.44 -0.43 -0.44 -0.44 -0.44 -0.44 -0.44 -0.44 -0.43 -0.44 -0.44 -0.44 -0.44 -0.44 -0.44 -0.43 -0.44 -0.44 -0.44 -0.44 -0.44 -0.44 -0.43 -0.44 -0.44 -0.44 -0.44 -0.44 -0.44 -0.43 -0.44 -0.44 -0.44 -0.44 -0.44 -0.44 -0.44 -0.43 -0.44 -0.44 -0.44 -0.44 -0.44 -0.44 -0.43 -0.44 -0.44 -0.44 -0.44 -0.44 -0.44 -0.43 -0.44 -0.44 -0.44 -0.44 -0.44 -0.44 -0.43 -0.44 -0.44 -0.44 -0.44 -0.44 -0.44 -0.43 -0.44 -0.44 -0.44 -0.44 -0.44 -0.44 -0.44 -0.43 -0.44 -0.44 -0.44 -0.44 -0.44 -0.44 -0.43 -0.44 -0.44 -0.44 -0.44 -0.44 -0.44 -0.43 -0.44 -0.44 -0.44 -0.44 -0.44 -0.44 -0.43 -0.44 -0.44 -0.44 -0.44 -0.44 -0.44 -0.43 -0.44 -0.44 -0.44 -0.44 -0.44 -0.44 -0.43 -0.44 -0.44 -0.44 -0.44 -0.44 -0.44 -0.44 -0.43 -0.44 -0.44 -0.44 -0.44 -0.44 -0.44 -0.43 -0.44 -0.44 -0.44 -0.44 -0.44 -0.44 -0.43 -0.44 -0.44 -0.44 -0.44 -0.44 -0.44 -0.43 -0.44 -0.44 -0.44 -0.44 -0.44 -0.44 -0.43 -0.44 -0.44 -0.44 -0.44 -0.44 -0.44 -0.44 -0.43 -0.44 -0.44 -0.44 -0.44 -0.44 -0.44 -0.43 -0.44 -0.44 -0.44 -0.44 -0.44 -0.44 -0.43 -0.44 -0.44 -0.44 -0.44 -0.44 -0.44 -0.43 -0.44 -0.44 -0.44 -0.44 -0.44 -0.44 -0.43 -0.44 -0.44 -0.44 -0.44 -0.44 -0.44 -0.44 -0.43 -0.44 -0.44 -0.44 -0.44 -0.44 -0.44 -0.43 -0.44 -0.44 -0.44 -0.44 -0.44 -0.44 -0.43 -0.44 -0.44 -0.44 -0.44 -0.44 -0.44 -0.43 -0.44 -0.44 -0.44 -0.44 -0.44 -0.44 -0.43 -0.44 -0.44 -0.44 -0.44 -0.44 -0.44 -0.43 -0.44 -0.44 -0.44 -0.44 -0.44 -0.44 -0.44 -0.43 -0.44 -0.44 -0.44 -0.44 -0.44 -0.44 -0.43 -0.44 -0.44 -0.44 -0.44 -0.44 -0.44 -0.43 -0.44 -0.44 -0.44 -0.44 -0.44 -0.44 -0.43 -0.44 -0.44 -0.44 -0.44 -0.44 -0.44 -0.43 -0.44 -0.44 -0.44 -0.44 -0.44 -0.44 -0.44 -0.43 -0.44 -0.44 -0.44 -0.44 -0.44 -0.44 -0.43 -0.44 -0.44 -0.44 -0.44 -0.44 -0.44 -0.43 -0.44 -0.44 -0.44 -0.44 -0.44 -0.44 -0.43 -0.44 -0.44 -0.44 -0.44 -0.44 -0.44 -0.43 -0.44 -0.44 -0.44 -0.44 -0.44 -0.44 -0.44 -0.43 -0.44 -0.44 -0.44 -0.44 -0.44 -0.44 -0.43 -0.44 -0.44 -0.44 -0.44 -0.44 -0.44 -0.43 -0.44 -0.44 -0.44 -0.44 -0.44 -0.44 -0.43 -0.44 -0.44 -0.44 -0.44 -0.44 -0.44 -0.43 -0.44 -0.44 -0.44 -0.44 -0.44 -0.44 -0.43 -0.44 -0.44 -0.44 -0.44 -0.44 -0.44 -0.44 -0.43 -0.44 -0.44 -0.44 -0.44 -0.44 -0.44 -0.43 -0.44 -0.44 -0.44 -0.44 -0.44 -0.44 -0.43 -0.44 -0.44 -0.44 -0.44 -0.44 -0.44 -0.43 -0.44 -0.44 -0.44 -0.44 -0.44 -0.44 z"
           style="fill:#ca9c6e;fill-opacity:0.298;fill-rule:nonzero;stroke:none"
           id="path354" /><path
           d="m 335.19,42.5 h 0.43 0.44 0.44 0.44 0.44 0.44 0.44 0.43 0.44 0.44 0.44 0.44 0.44 0.44 0.43 0.44 0.44 0.44 0.44 0.44 0.44 0.43 0.44 0.44 0.44 0.44 0.44 0.44 0.43 0.44 0.44 0.44 0.44 0.44 0.44 0.44 0.43 0.44 0.44 0.44 0.44 0.44 0.44 0.43 0.44 0.44 0.44 0.44 0.44 0.44 0.43 0.44 0.44 0.44 l 0.44,0.01 h 0.44 l 0.44,0.01 0.43,0.01 0.44,0.01 0.44,0.02 0.44,0.02 0.44,0.03 0.44,0.04 0.44,0.05 0.43,0.06 0.44,0.08 0.44,0.09 0.44,0.11 0.44,0.14 0.44,0.15 0.44,0.17 0.43,0.19 0.44,0.21 0.44,0.22 0.44,0.23 0.44,0.24 0.44,0.23 0.44,0.23 0.44,0.21 0.43,0.19 0.44,0.16 0.44,0.13 0.44,0.11 0.44,0.07 0.44,0.04 0.44,0.01 h 0.43 l 0.44,-0.03 0.44,-0.03 0.44,-0.04 0.44,-0.03 0.44,-0.01 h 0.44 l 0.43,0.02 0.44,0.04 0.44,0.07 0.44,0.1 0.44,0.11 0.44,0.14 0.44,0.16 0.43,0.16 0.44,0.18 0.44,0.18 0.44,0.18 0.44,0.19 0.44,0.19 0.44,0.19 0.43,0.19 0.44,0.19 0.44,0.2 0.44,0.2 0.44,0.22 0.44,0.22 0.44,0.24 0.44,0.26 0.43,0.27 0.44,0.3 0.44,0.32 0.44,0.35 0.44,0.37 0.44,0.39 0.44,0.42 0.43,0.43 0.44,0.45 0.44,0.46 0.44,0.48 0.44,0.48 0.44,0.48 0.44,0.47 0.43,0.47 0.44,0.46 0.44,0.44 0.44,0.43 0.44,0.41 0.44,0.39 0.44,0.37 0.43,0.36 0.44,0.34 0.44,0.33 0.44,0.32 0.44,0.31 0.44,0.31 0.44,0.32 0.43,0.33 0.44,0.35 0.44,0.37 0.44,0.41 0.44,0.45 0.44,0.49 0.44,0.55 0.44,0.61 0.43,0.67 0.44,0.71 0.44,0.77 0.44,0.81 0.44,0.84 0.44,0.87 0.44,0.88 0.43,0.89 0.44,0.88 0.44,0.87 0.44,0.84 0.44,0.83 0.44,0.8 0.44,0.78 0.43,0.77 0.44,0.75 0.44,0.76 0.44,0.76 0.44,0.79 0.44,0.81 0.44,0.84 0.43,0.89 0.44,0.93 0.44,0.97 0.44,1.02 0.44,1.07 0.44,1.1 0.44,1.13 0.43,1.15 0.44,1.16 0.44,1.18 0.44,1.17 0.44,1.18 0.44,1.17 0.44,1.15 0.43,1.13 0.44,1.11 0.44,1.09 0.44,1.07 0.44,1.04 0.44,1.02 0.44,0.99 0.44,0.96 0.43,0.94 0.44,0.93 0.44,0.91 0.44,0.91 0.44,0.92 0.44,0.92 0.44,0.94 0.43,0.96 0.44,0.99 0.44,1.02 0.44,1.05 0.44,1.08 0.44,1.1 0.44,1.13 0.43,1.14 0.44,1.17 0.44,1.17 0.44,1.18 0.44,1.19 0.44,1.19 0.44,1.2 0.43,1.22 0.44,1.22 0.44,1.24 0.44,1.26 0.44,1.29 0.44,1.32 0.44,1.36 0.43,1.39 0.44,1.44 0.44,1.49 0.44,1.53 0.44,1.59 0.44,1.64 0.44,1.71 0.44,1.78 0.43,1.85 0.44,1.92 0.44,2 0.44,2.08 0.44,2.17 0.44,2.26 0.44,2.36 0.43,2.46 0.44,2.58 0.44,2.69 0.44,2.79 0.44,2.9 0.44,3 0.44,3.09 0.43,3.17 0.44,3.23 0.44,3.29 0.44,3.31 0.44,3.31 0.44,3.29 0.44,3.25 0.43,3.17 0.44,3.08 0.44,2.96 0.44,2.82 0.44,2.66 0.44,2.48 0.44,2.29 0.43,2.1 0.44,1.9 0.44,1.71 0.44,1.52 0.44,1.33 0.44,1.15 0.44,0.96 0.44,0.8 0.43,0.65 0.44,0.51 0.44,0.4 0.44,0.29 0.44,0.2 0.44,0.11 0.44,0.03 0.43,-0.05 0.44,-0.12 0.44,-0.19 0.44,-0.25 0.44,-0.32 0.44,-0.39 0.44,-0.46 0.43,-0.53 0.44,-0.59 0.44,-0.66 0.44,-0.71 0.44,-0.76 0.44,-0.78 0.44,-0.81 0.43,-0.83 0.44,-0.83 0.44,-0.83 0.44,-0.83 0.44,-0.85 0.44,-0.87 0.44,-0.91 0.43,-0.98 0.44,-1.06 0.44,-1.18 0.44,-1.32 0.44,-1.49 0.44,-1.69 0.44,-1.91 0.43,-2.13 0.44,-2.34 0.44,-2.54 0.44,-2.72 0.44,-2.88 0.44,-3.01 0.44,-3.11 0.44,-3.18 0.43,-3.19 0.44,-3.16 0.44,-3.12 0.44,-3.04 0.44,-2.93 0.44,-2.83 0.44,-2.69 0.43,-2.57 0.44,-2.42 0.44,-2.29 0.44,-2.18 0.44,-2.09 0.44,-2.01 0.44,-1.95 0.43,-1.92 0.44,-1.91 0.44,-1.91 0.44,-1.95 0.44,-1.99 0.44,-2.06 0.44,-2.12 0.43,-2.2 0.44,-2.26 0.44,-2.33 0.44,-2.38 0.44,-2.44 0.44,-2.46 0.44,-2.49 0.43,-2.48 0.44,-2.47 0.44,-2.45 0.44,-2.43 0.44,-2.38 0.44,-2.35 0.44,-2.31 0.44,-2.26 0.43,-2.23 0.44,-2.19 0.44,-2.15 0.44,-2.12 0.44,-2.09 0.44,-2.05 0.44,-2.02 0.43,-1.97 0.44,-1.92 0.44,-1.87 0.44,-1.81 0.44,-1.76 0.44,-1.69 0.44,-1.62 0.43,-1.55 0.44,-1.49 0.44,-1.42 0.44,-1.35 0.44,-1.3 0.44,-1.24 0.44,-1.21 0.43,-1.17 0.44,-1.14 0.44,-1.11 0.44,-1.1 0.44,-1.08 0.44,-1.06 0.44,-1.06 0.43,-1.04 0.44,-1.02 0.44,-1.01 0.44,-0.97 0.44,-0.95 0.44,-0.92 0.44,-0.87 0.43,-0.82 0.44,-0.78 0.44,-0.73 0.44,-0.67 0.44,-0.63 0.44,-0.59 0.44,-0.54 0.44,-0.49 0.43,-0.46 0.44,-0.43 0.44,-0.4 0.44,-0.38 0.44,-0.36 0.44,-0.34 0.44,-0.33 0.43,-0.32 0.44,-0.3 0.44,-0.3 0.44,-0.28 0.44,-0.27 0.44,-0.26 0.44,-0.25 0.43,-0.23 0.44,-0.22 0.44,-0.21 0.44,-0.19 0.44,-0.17 0.44,-0.16 0.44,-0.15 0.43,-0.14 0.44,-0.14 0.44,-0.13 0.44,-0.12 0.44,-0.12 0.44,-0.12 0.44,-0.13 0.43,-0.12 0.44,-0.12 0.44,-0.13 0.44,-0.12 0.44,-0.13 0.44,-0.12 0.44,-0.12 0.44,-0.11 0.43,-0.11 0.44,-0.1 0.44,-0.1 0.44,-0.08 0.44,-0.08 0.44,-0.07 0.44,-0.06 0.43,-0.05 0.44,-0.05 0.44,-0.03 0.44,-0.04 0.44,-0.02 0.44,-0.02 0.44,-0.02 0.43,-0.01 0.44,-0.01 0.44,-0.01 0.44,-0.01 h 0.44 0.44 l 0.44,-0.01 h 0.43 0.44 0.44 0.44 0.44 0.44 0.44 0.43 0.44 0.44 0.44 0.44 0.44 0.44 0.44 0.43 0.44 0.44 0.44 0.44 0.44 0.44 0.43 0.44 0.44 0.44 0.44 0.44 0.44 0.43 0.44 0.44 0.44 0.44 0.44 0.44 0.43 0.44 0.44 0.44 0.44 0.44 0.44 0.43 0.44 0.44 0.44 0.44 0.44 0.44 0.43 0.44 0.44 0.44 0.44 0.44 0.44 0.44 0.43 0.44 0.44 0.44 0.44 0.44 0.44 0.43"
           style="fill:none;stroke:#333333;stroke-width:2.13;stroke-linecap:round;stroke-linejoin:round;stroke-miterlimit:10;stroke-dasharray:none;stroke-opacity:1"
           id="path356" /><path
           d="M 323.98,31.91 H 570.52 V 264.85 H 323.98 Z"
           style="fill:none;stroke:#333333;stroke-width:1.07;stroke-linecap:round;stroke-linejoin:round;stroke-miterlimit:10;stroke-dasharray:none;stroke-opacity:1"
           id="path358" /></g></g><g
       id="g360" /><g
       id="g362" /><g
       id="g364" /><g
       id="g366" /><g
       id="g368" /><g
       id="g370" /><g
       id="g372" /><g
       id="g374" /><g
       id="g376" /><g
       id="g378" /><g
       id="g380" /><g
       id="g382" /><g
       id="g384" /><g
       id="g386" /><g
       id="g388" /><g
       id="g390"><text
         transform="matrix(1,0,0,-1,306.54,39.27)"
         style="font-variant:normal;font-weight:normal;font-size:9px;font-family:Helvetica;-inkscape-font-specification:Helvetica;writing-mode:lr-tb;fill:#4d4d4d;fill-opacity:1;fill-rule:nonzero;stroke:none"
         id="text394"><tspan
           x="0 5.0040002 7.506"
           y="0"
           sodipodi:role="line"
           id="tspan392">0.0</tspan></text><text
         transform="matrix(1,0,0,-1,306.54,81.62)"
         style="font-variant:normal;font-weight:normal;font-size:9px;font-family:Helvetica;-inkscape-font-specification:Helvetica;writing-mode:lr-tb;fill:#4d4d4d;fill-opacity:1;fill-rule:nonzero;stroke:none"
         id="text398"><tspan
           x="0 5.0040002 7.506"
           y="0"
           sodipodi:role="line"
           id="tspan396">0.1</tspan></text><text
         transform="matrix(1,0,0,-1,306.54,123.97)"
         style="font-variant:normal;font-weight:normal;font-size:9px;font-family:Helvetica;-inkscape-font-specification:Helvetica;writing-mode:lr-tb;fill:#4d4d4d;fill-opacity:1;fill-rule:nonzero;stroke:none"
         id="text402"><tspan
           x="0 5.0040002 7.506"
           y="0"
           sodipodi:role="line"
           id="tspan400">0.2</tspan></text><text
         transform="matrix(1,0,0,-1,306.54,166.32)"
         style="font-variant:normal;font-weight:normal;font-size:9px;font-family:Helvetica;-inkscape-font-specification:Helvetica;writing-mode:lr-tb;fill:#4d4d4d;fill-opacity:1;fill-rule:nonzero;stroke:none"
         id="text406"><tspan
           x="0 5.0040002 7.506"
           y="0"
           sodipodi:role="line"
           id="tspan404">0.3</tspan></text><text
         transform="matrix(1,0,0,-1,306.54,208.68)"
         style="font-variant:normal;font-weight:normal;font-size:9px;font-family:Helvetica;-inkscape-font-specification:Helvetica;writing-mode:lr-tb;fill:#4d4d4d;fill-opacity:1;fill-rule:nonzero;stroke:none"
         id="text410"><tspan
           x="0 5.0040002 7.506"
           y="0"
           sodipodi:role="line"
           id="tspan408">0.4</tspan></text><text
         transform="matrix(1,0,0,-1,306.54,251.03)"
         style="font-variant:normal;font-weight:normal;font-size:9px;font-family:Helvetica;-inkscape-font-specification:Helvetica;writing-mode:lr-tb;fill:#4d4d4d;fill-opacity:1;fill-rule:nonzero;stroke:none"
         id="text414"><tspan
           x="0 5.0040002 7.506"
           y="0"
           sodipodi:role="line"
           id="tspan412">0.5</tspan></text></g><g
       id="g416" /><g
       id="g418"><path
         d="m 321.24,42.5 h 2.74"
         style="fill:none;stroke:#333333;stroke-width:1.07;stroke-linecap:butt;stroke-linejoin:round;stroke-miterlimit:10;stroke-dasharray:none;stroke-opacity:1"
         id="path420" /><path
         d="m 321.24,84.85 h 2.74"
         style="fill:none;stroke:#333333;stroke-width:1.07;stroke-linecap:butt;stroke-linejoin:round;stroke-miterlimit:10;stroke-dasharray:none;stroke-opacity:1"
         id="path422" /><path
         d="m 321.24,127.2 h 2.74"
         style="fill:none;stroke:#333333;stroke-width:1.07;stroke-linecap:butt;stroke-linejoin:round;stroke-miterlimit:10;stroke-dasharray:none;stroke-opacity:1"
         id="path424" /><path
         d="m 321.24,169.55 h 2.74"
         style="fill:none;stroke:#333333;stroke-width:1.07;stroke-linecap:butt;stroke-linejoin:round;stroke-miterlimit:10;stroke-dasharray:none;stroke-opacity:1"
         id="path426" /><path
         d="m 321.24,211.91 h 2.74"
         style="fill:none;stroke:#333333;stroke-width:1.07;stroke-linecap:butt;stroke-linejoin:round;stroke-miterlimit:10;stroke-dasharray:none;stroke-opacity:1"
         id="path428" /><path
         d="m 321.24,254.26 h 2.74"
         style="fill:none;stroke:#333333;stroke-width:1.07;stroke-linecap:butt;stroke-linejoin:round;stroke-miterlimit:10;stroke-dasharray:none;stroke-opacity:1"
         id="path430" /></g><g
       id="g432" /><g
       id="g434" /><g
       id="g436" /><g
       id="g438" /><g
       id="g440" /><g
       id="g442" /><g
       id="g444" /><g
       id="g446" /><g
       id="g448" /><g
       id="g450"><path
         d="m 384.99,29.17 v 2.74"
         style="fill:none;stroke:#333333;stroke-width:1.07;stroke-linecap:butt;stroke-linejoin:round;stroke-miterlimit:10;stroke-dasharray:none;stroke-opacity:1"
         id="path452" /><path
         d="m 459.7,29.17 v 2.74"
         style="fill:none;stroke:#333333;stroke-width:1.07;stroke-linecap:butt;stroke-linejoin:round;stroke-miterlimit:10;stroke-dasharray:none;stroke-opacity:1"
         id="path454" /><path
         d="m 534.41,29.17 v 2.74"
         style="fill:none;stroke:#333333;stroke-width:1.07;stroke-linecap:butt;stroke-linejoin:round;stroke-miterlimit:10;stroke-dasharray:none;stroke-opacity:1"
         id="path456" /></g><g
       id="g458" /><g
       id="g460"><text
         transform="matrix(1,0,0,-1,372.36,20.52)"
         style="font-variant:normal;font-weight:normal;font-size:9px;font-family:Helvetica;-inkscape-font-specification:Helvetica;writing-mode:lr-tb;fill:#4d4d4d;fill-opacity:1;fill-rule:nonzero;stroke:none"
         id="text464"><tspan
           x="0 5.0040002 10.008 15.264 20.268"
           y="0"
           sodipodi:role="line"
           id="tspan462">1e−01</tspan></text><text
         transform="matrix(1,0,0,-1,447.07,20.52)"
         style="font-variant:normal;font-weight:normal;font-size:9px;font-family:Helvetica;-inkscape-font-specification:Helvetica;writing-mode:lr-tb;fill:#4d4d4d;fill-opacity:1;fill-rule:nonzero;stroke:none"
         id="text468"><tspan
           x="0 5.0040002 10.008 15.264 20.268"
           y="0"
           sodipodi:role="line"
           id="tspan466">1e+02</tspan></text><text
         transform="matrix(1,0,0,-1,521.77,20.52)"
         style="font-variant:normal;font-weight:normal;font-size:9px;font-family:Helvetica;-inkscape-font-specification:Helvetica;writing-mode:lr-tb;fill:#4d4d4d;fill-opacity:1;fill-rule:nonzero;stroke:none"
         id="text472"><tspan
           x="0 5.0040002 10.008 15.264 20.268"
           y="0"
           sodipodi:role="line"
           id="tspan470">1e+05</tspan></text></g><g
       id="g474" /><g
       id="g476" /><g
       id="g478" /><g
       id="g480" /><g
       id="g482" /><g
       id="g484"><text
         transform="matrix(1,0,0,-1,361.42,7.9)"
         style="font-variant:normal;font-weight:normal;font-size:11px;font-family:Helvetica;-inkscape-font-specification:Helvetica;writing-mode:lr-tb;fill:#000000;fill-opacity:1;fill-rule:nonzero;stroke:none"
         id="text488"><tspan
           x="0 9.1630001 15.279 20.778999 23.221001 32.273998 38.389999 47.553001 50.611 56.727001 62.842999 66.505997 69.564003 75.064003 81.18 87.295998 93.412003 95.853996 98.912003 101.354 107.47 113.586 116.644 125.807 131.923 138.039 144.155 147.213 155.155 162.492"
           y="0"
           sodipodi:role="line"
           id="tspan486">Maximum per condition mean CPM</tspan></text></g><g
       id="g490" /><g
       id="g492"><text
         transform="matrix(0,1,1,0,301.38,99.77)"
         style="font-variant:normal;font-weight:normal;font-size:11px;font-family:Helvetica;-inkscape-font-specification:Helvetica;writing-mode:lr-tb;fill:#000000;fill-opacity:1;fill-rule:nonzero;stroke:none"
         id="text496"><tspan
           x="0 6.7210002 10.384 16.5 22.615999 28.732 34.848 40.964001 46.464001 51.964001 55.021999 61.138 64.195999 67.253998 73.370003 79.486 85.601997 91.718002"
           y="0"
           sodipodi:role="line"
           id="tspan494">Frequency of genes</tspan></text></g><g
       id="g498" /><g
       id="g500" /><g
       id="g502" /><g
       id="g504" /><g
       id="g506" /><g
       id="g514" /><g
       id="g516" /><g
       id="g518" /><g
       id="g520" /><g
       id="g522" /><g
       id="g524" /><g
       id="g526" /><g
       id="g528"><text
         transform="matrix(1,0,0,-1,293.05,272.92)"
         style="font-variant:normal;font-weight:bold;font-size:14px;font-family:Helvetica;-inkscape-font-specification:Helvetica-Bold;writing-mode:lr-tb;fill:#000000;fill-opacity:1;fill-rule:nonzero;stroke:none"
         id="text532"><tspan
           x="0"
           y="0"
           id="tspan530">B</tspan></text></g><g
       id="g534" /><g
       id="g536" /><g
       id="g538" /><g
       id="g540" /><g
       id="g542" /><g
       id="g544" /><g
       id="g546" /><g
       id="g548" /><g
       id="g550" /><g
       id="g562" /><g
       id="g564"><g
         id="g566"
         clip-path="url(#clipPath570)"><path
           d="M 611.98,31.91 H 858.52 V 264.85 H 611.98 Z"
           style="fill:#ffffff;fill-opacity:1;fill-rule:nonzero;stroke:none"
           id="path572" /><path
           d="M 611.98,63.67 H 858.52"
           style="fill:none;stroke:#ebebeb;stroke-width:0.53;stroke-linecap:butt;stroke-linejoin:round;stroke-miterlimit:10;stroke-dasharray:none;stroke-opacity:1"
           id="path574" /><path
           d="M 611.98,106.03 H 858.52"
           style="fill:none;stroke:#ebebeb;stroke-width:0.53;stroke-linecap:butt;stroke-linejoin:round;stroke-miterlimit:10;stroke-dasharray:none;stroke-opacity:1"
           id="path576" /><path
           d="M 611.98,148.38 H 858.52"
           style="fill:none;stroke:#ebebeb;stroke-width:0.53;stroke-linecap:butt;stroke-linejoin:round;stroke-miterlimit:10;stroke-dasharray:none;stroke-opacity:1"
           id="path578" /><path
           d="M 611.98,190.73 H 858.52"
           style="fill:none;stroke:#ebebeb;stroke-width:0.53;stroke-linecap:butt;stroke-linejoin:round;stroke-miterlimit:10;stroke-dasharray:none;stroke-opacity:1"
           id="path580" /><path
           d="M 611.98,233.08 H 858.52"
           style="fill:none;stroke:#ebebeb;stroke-width:0.53;stroke-linecap:butt;stroke-linejoin:round;stroke-miterlimit:10;stroke-dasharray:none;stroke-opacity:1"
           id="path582" /><path
           d="M 635.64,31.91 V 264.85"
           style="fill:none;stroke:#ebebeb;stroke-width:0.53;stroke-linecap:butt;stroke-linejoin:round;stroke-miterlimit:10;stroke-dasharray:none;stroke-opacity:1"
           id="path584" /><path
           d="M 710.35,31.91 V 264.85"
           style="fill:none;stroke:#ebebeb;stroke-width:0.53;stroke-linecap:butt;stroke-linejoin:round;stroke-miterlimit:10;stroke-dasharray:none;stroke-opacity:1"
           id="path586" /><path
           d="M 785.06,31.91 V 264.85"
           style="fill:none;stroke:#ebebeb;stroke-width:0.53;stroke-linecap:butt;stroke-linejoin:round;stroke-miterlimit:10;stroke-dasharray:none;stroke-opacity:1"
           id="path588" /><path
           d="M 611.98,42.5 H 858.52"
           style="fill:none;stroke:#ebebeb;stroke-width:1.07;stroke-linecap:butt;stroke-linejoin:round;stroke-miterlimit:10;stroke-dasharray:none;stroke-opacity:1"
           id="path590" /><path
           d="M 611.98,84.85 H 858.52"
           style="fill:none;stroke:#ebebeb;stroke-width:1.07;stroke-linecap:butt;stroke-linejoin:round;stroke-miterlimit:10;stroke-dasharray:none;stroke-opacity:1"
           id="path592" /><path
           d="M 611.98,127.2 H 858.52"
           style="fill:none;stroke:#ebebeb;stroke-width:1.07;stroke-linecap:butt;stroke-linejoin:round;stroke-miterlimit:10;stroke-dasharray:none;stroke-opacity:1"
           id="path594" /><path
           d="M 611.98,169.55 H 858.52"
           style="fill:none;stroke:#ebebeb;stroke-width:1.07;stroke-linecap:butt;stroke-linejoin:round;stroke-miterlimit:10;stroke-dasharray:none;stroke-opacity:1"
           id="path596" /><path
           d="M 611.98,211.91 H 858.52"
           style="fill:none;stroke:#ebebeb;stroke-width:1.07;stroke-linecap:butt;stroke-linejoin:round;stroke-miterlimit:10;stroke-dasharray:none;stroke-opacity:1"
           id="path598" /><path
           d="M 611.98,254.26 H 858.52"
           style="fill:none;stroke:#ebebeb;stroke-width:1.07;stroke-linecap:butt;stroke-linejoin:round;stroke-miterlimit:10;stroke-dasharray:none;stroke-opacity:1"
           id="path600" /><path
           d="M 672.99,31.91 V 264.85"
           style="fill:none;stroke:#ebebeb;stroke-width:1.07;stroke-linecap:butt;stroke-linejoin:round;stroke-miterlimit:10;stroke-dasharray:none;stroke-opacity:1"
           id="path602" /><path
           d="M 747.7,31.91 V 264.85"
           style="fill:none;stroke:#ebebeb;stroke-width:1.07;stroke-linecap:butt;stroke-linejoin:round;stroke-miterlimit:10;stroke-dasharray:none;stroke-opacity:1"
           id="path604" /><path
           d="M 822.41,31.91 V 264.85"
           style="fill:none;stroke:#ebebeb;stroke-width:1.07;stroke-linecap:butt;stroke-linejoin:round;stroke-miterlimit:10;stroke-dasharray:none;stroke-opacity:1"
           id="path606" /><path
           d="M 679.53,31.91 V 264.85"
           style="fill:none;stroke:#000000;stroke-width:1.07;stroke-linecap:butt;stroke-linejoin:round;stroke-miterlimit:10;stroke-dasharray:4.27, 4.27;stroke-dashoffset:0;stroke-opacity:1"
           id="path608" /><path
           d="m 623.19,42.5 h 0.43 0.44 0.44 0.44 0.44 0.44 0.44 0.43 l 0.44,0.01 h 0.44 0.44 l 0.44,0.01 h 0.44 l 0.44,0.01 0.43,0.01 0.44,0.02 0.44,0.01 0.44,0.02 0.44,0.02 0.44,0.03 0.44,0.03 0.43,0.03 0.44,0.04 0.44,0.05 0.44,0.04 0.44,0.05 0.44,0.06 0.44,0.06 0.43,0.06 0.44,0.06 0.44,0.07 0.44,0.06 0.44,0.07 0.44,0.06 0.44,0.06 0.44,0.06 0.43,0.06 0.44,0.05 0.44,0.04 0.44,0.04 0.44,0.04 0.44,0.04 0.44,0.03 0.43,0.03 0.44,0.04 0.44,0.04 0.44,0.04 0.44,0.06 0.44,0.06 0.44,0.08 0.43,0.09 0.44,0.09 0.44,0.12 0.44,0.12 0.44,0.13 0.44,0.14 0.44,0.14 0.43,0.15 0.44,0.14 0.44,0.15 0.44,0.14 0.44,0.13 0.44,0.12 0.44,0.11 0.43,0.1 0.44,0.09 0.44,0.07 0.44,0.06 0.44,0.05 0.44,0.03 0.44,0.03 0.43,0.02 0.44,0.01 0.44,0.01 0.44,0.01 0.44,0.01 0.44,0.02 0.44,0.03 0.44,0.03 0.43,0.04 0.44,0.05 0.44,0.06 0.44,0.07 0.44,0.07 0.44,0.08 0.44,0.08 0.43,0.08 0.44,0.1 0.44,0.09 0.44,0.1 0.44,0.11 0.44,0.12 0.44,0.12 0.43,0.14 0.44,0.15 0.44,0.17 0.44,0.18 0.44,0.19 0.44,0.2 0.44,0.21 0.43,0.22 0.44,0.23 0.44,0.23 0.44,0.22 0.44,0.23 0.44,0.21 0.44,0.22 0.43,0.21 0.44,0.2 0.44,0.2 0.44,0.21 0.44,0.21 0.44,0.22 0.44,0.25 0.44,0.26 0.43,0.3 0.44,0.34 0.44,0.37 0.44,0.41 0.44,0.46 0.44,0.5 0.44,0.55 0.43,0.59 0.44,0.63 0.44,0.66 0.44,0.68 0.44,0.71 0.44,0.73 0.44,0.73 0.43,0.75 0.44,0.76 0.44,0.76 0.44,0.76 0.44,0.77 0.44,0.77 0.44,0.78 0.43,0.8 0.44,0.8 0.44,0.82 0.44,0.85 0.44,0.88 0.44,0.91 0.44,0.94 0.43,0.99 0.44,1.02 0.44,1.08 0.44,1.12 0.44,1.16 0.44,1.21 0.44,1.25 0.44,1.28 0.43,1.3 0.44,1.32 0.44,1.32 0.44,1.32 0.44,1.3 0.44,1.27 0.44,1.23 0.43,1.2 0.44,1.15 0.44,1.11 0.44,1.06 0.44,1.02 0.44,0.99 0.44,0.97 0.43,0.96 0.44,0.95 0.44,0.97 0.44,1.01 0.44,1.05 0.44,1.11 0.44,1.19 0.43,1.27 0.44,1.37 0.44,1.48 0.44,1.6 0.44,1.72 0.44,1.83 0.44,1.95 0.43,2.06 0.44,2.17 0.44,2.27 0.44,2.35 0.44,2.44 0.44,2.52 0.44,2.56 0.43,2.62 0.44,2.64 0.44,2.66 0.44,2.67 0.44,2.67 0.44,2.65 0.44,2.64 0.44,2.59 0.43,2.56 0.44,2.52 0.44,2.46 0.44,2.42 0.44,2.37 0.44,2.32 0.44,2.28 0.43,2.24 0.44,2.22 0.44,2.19 0.44,2.17 0.44,2.17 0.44,2.17 0.44,2.17 0.43,2.17 0.44,2.18 0.44,2.16 0.44,2.15 0.44,2.13 0.44,2.09 0.44,2.05 0.43,1.98 0.44,1.93 0.44,1.85 0.44,1.77 0.44,1.7 0.44,1.61 0.44,1.54 0.43,1.48 0.44,1.42 0.44,1.37 0.44,1.32 0.44,1.28 0.44,1.23 0.44,1.2 0.44,1.14 0.43,1.1 0.44,1.05 0.44,0.99 0.44,0.95 0.44,0.88 0.44,0.84 0.44,0.79 0.43,0.73 0.44,0.69 0.44,0.66 0.44,0.62 0.44,0.59 0.44,0.55 0.44,0.52 0.43,0.48 0.44,0.43 0.44,0.35 0.44,0.28 0.44,0.17 0.44,0.07 0.44,-0.06 0.43,-0.2 0.44,-0.34 0.44,-0.51 0.44,-0.68 0.44,-0.85 0.44,-1.04 0.44,-1.21 0.43,-1.37 0.44,-1.52 0.44,-1.68 0.44,-1.8 0.44,-1.93 0.44,-2.04 0.44,-2.13 0.44,-2.22 0.43,-2.28 0.44,-2.32 0.44,-2.36 0.44,-2.37 0.44,-2.38 0.44,-2.38 0.44,-2.37 0.43,-2.36 0.44,-2.32 0.44,-2.31 0.44,-2.27 0.44,-2.24 0.44,-2.21 0.44,-2.18 0.43,-2.14 0.44,-2.12 0.44,-2.08 0.44,-2.05 0.44,-2.02 0.44,-2 0.44,-1.98 0.43,-1.97 0.44,-1.95 0.44,-1.94 0.44,-1.93 0.44,-1.94 0.44,-1.93 0.44,-1.95 0.43,-1.95 0.44,-1.97 0.44,-1.98 0.44,-2.01 0.44,-2.04 0.44,-2.07 0.44,-2.11 0.43,-2.17 0.44,-2.22 0.44,-2.29 0.44,-2.35 0.44,-2.42 0.44,-2.48 0.44,-2.54 0.44,-2.6 0.43,-2.64 0.44,-2.66 0.44,-2.66 0.44,-2.65 0.44,-2.6 0.44,-2.54 0.44,-2.45 0.43,-2.35 0.44,-2.23 0.44,-2.08 0.44,-1.94 0.44,-1.78 0.44,-1.64 0.44,-1.49 0.43,-1.35 0.44,-1.22 0.44,-1.11 0.44,-1.01 0.44,-0.9 0.44,-0.83 0.44,-0.78 0.43,-0.73 0.44,-0.69 0.44,-0.68 0.44,-0.67 0.44,-0.66 0.44,-0.67 0.44,-0.69 0.43,-0.7 0.44,-0.74 0.44,-0.76 0.44,-0.78 0.44,-0.82 0.44,-0.86 0.44,-0.88 0.44,-0.91 0.43,-0.94 0.44,-0.96 0.44,-0.98 0.44,-0.99 0.44,-1 0.44,-0.99 0.44,-0.98 0.43,-0.97 0.44,-0.94 0.44,-0.9 0.44,-0.86 0.44,-0.81 0.44,-0.75 0.44,-0.68 0.43,-0.63 0.44,-0.55 0.44,-0.5 0.44,-0.43 0.44,-0.37 0.44,-0.31 0.44,-0.28 0.43,-0.24 0.44,-0.22 0.44,-0.21 0.44,-0.21 0.44,-0.21 0.44,-0.23 0.44,-0.25 0.43,-0.28 0.44,-0.3 0.44,-0.33 0.44,-0.35 0.44,-0.38 0.44,-0.39 0.44,-0.41 0.43,-0.42 0.44,-0.42 0.44,-0.42 0.44,-0.41 0.44,-0.4 0.44,-0.38 0.44,-0.37 0.44,-0.35 0.43,-0.33 0.44,-0.31 0.44,-0.29 0.44,-0.28 0.44,-0.26 0.44,-0.26 0.44,-0.24 0.43,-0.25 0.44,-0.24 0.44,-0.24 0.44,-0.24 0.44,-0.24 0.44,-0.25 0.44,-0.24 0.43,-0.24 0.44,-0.23 0.44,-0.23 0.44,-0.22 0.44,-0.21 0.44,-0.19 0.44,-0.18 0.43,-0.16 0.44,-0.14 0.44,-0.12 0.44,-0.11 0.44,-0.09 0.44,-0.07 0.44,-0.06 0.43,-0.05 0.44,-0.04 0.44,-0.03 0.44,-0.03 0.44,-0.03 0.44,-0.03 0.44,-0.02 0.44,-0.03 0.43,-0.04 0.44,-0.03 0.44,-0.04 0.44,-0.04 0.44,-0.04 0.44,-0.05 0.44,-0.04 0.43,-0.05 0.44,-0.04 0.44,-0.04 0.44,-0.04 0.44,-0.03 0.44,-0.03 0.44,-0.03 0.43,-0.02 0.44,-0.02 0.44,-0.02 0.44,-0.01 0.44,-0.02 0.44,-0.01 h 0.44 l 0.43,-0.01 h 0.44 0.44 l 0.44,-0.01 h 0.44 0.44 0.44 0.43 0.44 0.44 0.44 0.44 0.44 0.44 0.44 0.43 0.44 0.44 0.44 0.44 0.44 0.44 0.43 0.44 0.44 0.44 0.44 0.44 0.44 0.43 0.44 0.44 0.44 0.44 0.44 0.44 0.43 0.44 0.44 0.44 0.44 0.44 0.44 0.43 0.44 0.44 0.44 0.44 0.44 0.44 0.43 0.44 0.44 0.44 0.44 0.44 0.44 0.44 0.43 0.44 0.44 0.44 0.44 0.44 0.44 0.43 v 0 h -0.43 -0.44 -0.44 -0.44 -0.44 -0.44 -0.44 -0.43 -0.44 -0.44 -0.44 -0.44 -0.44 -0.44 -0.44 -0.43 -0.44 -0.44 -0.44 -0.44 -0.44 -0.44 -0.43 -0.44 -0.44 -0.44 -0.44 -0.44 -0.44 -0.43 -0.44 -0.44 -0.44 -0.44 -0.44 -0.44 -0.43 -0.44 -0.44 -0.44 -0.44 -0.44 -0.44 -0.43 -0.44 -0.44 -0.44 -0.44 -0.44 -0.44 -0.43 -0.44 -0.44 -0.44 -0.44 -0.44 -0.44 -0.44 -0.43 -0.44 -0.44 -0.44 -0.44 -0.44 -0.44 -0.43 -0.44 -0.44 -0.44 -0.44 -0.44 -0.44 -0.43 -0.44 -0.44 -0.44 -0.44 -0.44 -0.44 -0.43 -0.44 -0.44 -0.44 -0.44 -0.44 -0.44 -0.43 -0.44 -0.44 -0.44 -0.44 -0.44 -0.44 -0.44 -0.43 -0.44 -0.44 -0.44 -0.44 -0.44 -0.44 -0.43 -0.44 -0.44 -0.44 -0.44 -0.44 -0.44 -0.43 -0.44 -0.44 -0.44 -0.44 -0.44 -0.44 -0.43 -0.44 -0.44 -0.44 -0.44 -0.44 -0.44 -0.43 -0.44 -0.44 -0.44 -0.44 -0.44 -0.44 -0.44 -0.43 -0.44 -0.44 -0.44 -0.44 -0.44 -0.44 -0.43 -0.44 -0.44 -0.44 -0.44 -0.44 -0.44 -0.43 -0.44 -0.44 -0.44 -0.44 -0.44 -0.44 -0.43 -0.44 -0.44 -0.44 -0.44 -0.44 -0.44 -0.43 -0.44 -0.44 -0.44 -0.44 -0.44 -0.44 -0.43 -0.44 -0.44 -0.44 -0.44 -0.44 -0.44 -0.44 -0.43 -0.44 -0.44 -0.44 -0.44 -0.44 -0.44 -0.43 -0.44 -0.44 -0.44 -0.44 -0.44 -0.44 -0.43 -0.44 -0.44 -0.44 -0.44 -0.44 -0.44 -0.43 -0.44 -0.44 -0.44 -0.44 -0.44 -0.44 -0.43 -0.44 -0.44 -0.44 -0.44 -0.44 -0.44 -0.44 -0.43 -0.44 -0.44 -0.44 -0.44 -0.44 -0.44 -0.43 -0.44 -0.44 -0.44 -0.44 -0.44 -0.44 -0.43 -0.44 -0.44 -0.44 -0.44 -0.44 -0.44 -0.43 -0.44 -0.44 -0.44 -0.44 -0.44 -0.44 -0.43 -0.44 -0.44 -0.44 -0.44 -0.44 -0.44 -0.43 -0.44 -0.44 -0.44 -0.44 -0.44 -0.44 -0.44 -0.43 -0.44 -0.44 -0.44 -0.44 -0.44 -0.44 -0.43 -0.44 -0.44 -0.44 -0.44 -0.44 -0.44 -0.43 -0.44 -0.44 -0.44 -0.44 -0.44 -0.44 -0.43 -0.44 -0.44 -0.44 -0.44 -0.44 -0.44 -0.43 -0.44 -0.44 -0.44 -0.44 -0.44 -0.44 -0.44 -0.43 -0.44 -0.44 -0.44 -0.44 -0.44 -0.44 -0.43 -0.44 -0.44 -0.44 -0.44 -0.44 -0.44 -0.43 -0.44 -0.44 -0.44 -0.44 -0.44 -0.44 -0.43 -0.44 -0.44 -0.44 -0.44 -0.44 -0.44 -0.43 -0.44 -0.44 -0.44 -0.44 -0.44 -0.44 -0.44 -0.43 -0.44 -0.44 -0.44 -0.44 -0.44 -0.44 -0.43 -0.44 -0.44 -0.44 -0.44 -0.44 -0.44 -0.43 -0.44 -0.44 -0.44 -0.44 -0.44 -0.44 -0.43 -0.44 -0.44 -0.44 -0.44 -0.44 -0.44 -0.43 -0.44 -0.44 -0.44 -0.44 -0.44 -0.44 -0.43 -0.44 -0.44 -0.44 -0.44 -0.44 -0.44 -0.44 -0.43 -0.44 -0.44 -0.44 -0.44 -0.44 -0.44 -0.43 -0.44 -0.44 -0.44 -0.44 -0.44 -0.44 -0.43 -0.44 -0.44 -0.44 -0.44 -0.44 -0.44 -0.43 -0.44 -0.44 -0.44 -0.44 -0.44 -0.44 -0.43 -0.44 -0.44 -0.44 -0.44 -0.44 -0.44 -0.44 -0.43 -0.44 -0.44 -0.44 -0.44 -0.44 -0.44 -0.43 -0.44 -0.44 -0.44 -0.44 -0.44 -0.44 -0.43 -0.44 -0.44 -0.44 -0.44 -0.44 -0.44 -0.43 -0.44 -0.44 -0.44 -0.44 -0.44 -0.44 -0.43 -0.44 -0.44 -0.44 -0.44 -0.44 -0.44 -0.44 -0.43 -0.44 -0.44 -0.44 -0.44 -0.44 -0.44 -0.43 -0.44 -0.44 -0.44 -0.44 -0.44 -0.44 -0.43 -0.44 -0.44 -0.44 -0.44 -0.44 -0.44 -0.43 -0.44 -0.44 -0.44 -0.44 -0.44 -0.44 -0.43 -0.44 -0.44 -0.44 -0.44 -0.44 -0.44 -0.43 -0.44 -0.44 -0.44 -0.44 -0.44 -0.44 -0.44 -0.43 -0.44 -0.44 -0.44 -0.44 -0.44 -0.44 -0.43 -0.44 -0.44 -0.44 -0.44 -0.44 -0.44 -0.43 -0.44 -0.44 -0.44 -0.44 -0.44 -0.44 -0.43 -0.44 -0.44 -0.44 -0.44 -0.44 -0.44 z"
           style="fill:#ca6e6e;fill-opacity:0.298;fill-rule:nonzero;stroke:none"
           id="path610" /><path
           d="m 623.19,42.5 h 0.43 0.44 0.44 0.44 0.44 0.44 0.44 0.43 l 0.44,0.01 h 0.44 0.44 l 0.44,0.01 h 0.44 l 0.44,0.01 0.43,0.01 0.44,0.02 0.44,0.01 0.44,0.02 0.44,0.02 0.44,0.03 0.44,0.03 0.43,0.03 0.44,0.04 0.44,0.05 0.44,0.04 0.44,0.05 0.44,0.06 0.44,0.06 0.43,0.06 0.44,0.06 0.44,0.07 0.44,0.06 0.44,0.07 0.44,0.06 0.44,0.06 0.44,0.06 0.43,0.06 0.44,0.05 0.44,0.04 0.44,0.04 0.44,0.04 0.44,0.04 0.44,0.03 0.43,0.03 0.44,0.04 0.44,0.04 0.44,0.04 0.44,0.06 0.44,0.06 0.44,0.08 0.43,0.09 0.44,0.09 0.44,0.12 0.44,0.12 0.44,0.13 0.44,0.14 0.44,0.14 0.43,0.15 0.44,0.14 0.44,0.15 0.44,0.14 0.44,0.13 0.44,0.12 0.44,0.11 0.43,0.1 0.44,0.09 0.44,0.07 0.44,0.06 0.44,0.05 0.44,0.03 0.44,0.03 0.43,0.02 0.44,0.01 0.44,0.01 0.44,0.01 0.44,0.01 0.44,0.02 0.44,0.03 0.44,0.03 0.43,0.04 0.44,0.05 0.44,0.06 0.44,0.07 0.44,0.07 0.44,0.08 0.44,0.08 0.43,0.08 0.44,0.1 0.44,0.09 0.44,0.1 0.44,0.11 0.44,0.12 0.44,0.12 0.43,0.14 0.44,0.15 0.44,0.17 0.44,0.18 0.44,0.19 0.44,0.2 0.44,0.21 0.43,0.22 0.44,0.23 0.44,0.23 0.44,0.22 0.44,0.23 0.44,0.21 0.44,0.22 0.43,0.21 0.44,0.2 0.44,0.2 0.44,0.21 0.44,0.21 0.44,0.22 0.44,0.25 0.44,0.26 0.43,0.3 0.44,0.34 0.44,0.37 0.44,0.41 0.44,0.46 0.44,0.5 0.44,0.55 0.43,0.59 0.44,0.63 0.44,0.66 0.44,0.68 0.44,0.71 0.44,0.73 0.44,0.73 0.43,0.75 0.44,0.76 0.44,0.76 0.44,0.76 0.44,0.77 0.44,0.77 0.44,0.78 0.43,0.8 0.44,0.8 0.44,0.82 0.44,0.85 0.44,0.88 0.44,0.91 0.44,0.94 0.43,0.99 0.44,1.02 0.44,1.08 0.44,1.12 0.44,1.16 0.44,1.21 0.44,1.25 0.44,1.28 0.43,1.3 0.44,1.32 0.44,1.32 0.44,1.32 0.44,1.3 0.44,1.27 0.44,1.23 0.43,1.2 0.44,1.15 0.44,1.11 0.44,1.06 0.44,1.02 0.44,0.99 0.44,0.97 0.43,0.96 0.44,0.95 0.44,0.97 0.44,1.01 0.44,1.05 0.44,1.11 0.44,1.19 0.43,1.27 0.44,1.37 0.44,1.48 0.44,1.6 0.44,1.72 0.44,1.83 0.44,1.95 0.43,2.06 0.44,2.17 0.44,2.27 0.44,2.35 0.44,2.44 0.44,2.52 0.44,2.56 0.43,2.62 0.44,2.64 0.44,2.66 0.44,2.67 0.44,2.67 0.44,2.65 0.44,2.64 0.44,2.59 0.43,2.56 0.44,2.52 0.44,2.46 0.44,2.42 0.44,2.37 0.44,2.32 0.44,2.28 0.43,2.24 0.44,2.22 0.44,2.19 0.44,2.17 0.44,2.17 0.44,2.17 0.44,2.17 0.43,2.17 0.44,2.18 0.44,2.16 0.44,2.15 0.44,2.13 0.44,2.09 0.44,2.05 0.43,1.98 0.44,1.93 0.44,1.85 0.44,1.77 0.44,1.7 0.44,1.61 0.44,1.54 0.43,1.48 0.44,1.42 0.44,1.37 0.44,1.32 0.44,1.28 0.44,1.23 0.44,1.2 0.44,1.14 0.43,1.1 0.44,1.05 0.44,0.99 0.44,0.95 0.44,0.88 0.44,0.84 0.44,0.79 0.43,0.73 0.44,0.69 0.44,0.66 0.44,0.62 0.44,0.59 0.44,0.55 0.44,0.52 0.43,0.48 0.44,0.43 0.44,0.35 0.44,0.28 0.44,0.17 0.44,0.07 0.44,-0.06 0.43,-0.2 0.44,-0.34 0.44,-0.51 0.44,-0.68 0.44,-0.85 0.44,-1.04 0.44,-1.21 0.43,-1.37 0.44,-1.52 0.44,-1.68 0.44,-1.8 0.44,-1.93 0.44,-2.04 0.44,-2.13 0.44,-2.22 0.43,-2.28 0.44,-2.32 0.44,-2.36 0.44,-2.37 0.44,-2.38 0.44,-2.38 0.44,-2.37 0.43,-2.36 0.44,-2.32 0.44,-2.31 0.44,-2.27 0.44,-2.24 0.44,-2.21 0.44,-2.18 0.43,-2.14 0.44,-2.12 0.44,-2.08 0.44,-2.05 0.44,-2.02 0.44,-2 0.44,-1.98 0.43,-1.97 0.44,-1.95 0.44,-1.94 0.44,-1.93 0.44,-1.94 0.44,-1.93 0.44,-1.95 0.43,-1.95 0.44,-1.97 0.44,-1.98 0.44,-2.01 0.44,-2.04 0.44,-2.07 0.44,-2.11 0.43,-2.17 0.44,-2.22 0.44,-2.29 0.44,-2.35 0.44,-2.42 0.44,-2.48 0.44,-2.54 0.44,-2.6 0.43,-2.64 0.44,-2.66 0.44,-2.66 0.44,-2.65 0.44,-2.6 0.44,-2.54 0.44,-2.45 0.43,-2.35 0.44,-2.23 0.44,-2.08 0.44,-1.94 0.44,-1.78 0.44,-1.64 0.44,-1.49 0.43,-1.35 0.44,-1.22 0.44,-1.11 0.44,-1.01 0.44,-0.9 0.44,-0.83 0.44,-0.78 0.43,-0.73 0.44,-0.69 0.44,-0.68 0.44,-0.67 0.44,-0.66 0.44,-0.67 0.44,-0.69 0.43,-0.7 0.44,-0.74 0.44,-0.76 0.44,-0.78 0.44,-0.82 0.44,-0.86 0.44,-0.88 0.44,-0.91 0.43,-0.94 0.44,-0.96 0.44,-0.98 0.44,-0.99 0.44,-1 0.44,-0.99 0.44,-0.98 0.43,-0.97 0.44,-0.94 0.44,-0.9 0.44,-0.86 0.44,-0.81 0.44,-0.75 0.44,-0.68 0.43,-0.63 0.44,-0.55 0.44,-0.5 0.44,-0.43 0.44,-0.37 0.44,-0.31 0.44,-0.28 0.43,-0.24 0.44,-0.22 0.44,-0.21 0.44,-0.21 0.44,-0.21 0.44,-0.23 0.44,-0.25 0.43,-0.28 0.44,-0.3 0.44,-0.33 0.44,-0.35 0.44,-0.38 0.44,-0.39 0.44,-0.41 0.43,-0.42 0.44,-0.42 0.44,-0.42 0.44,-0.41 0.44,-0.4 0.44,-0.38 0.44,-0.37 0.44,-0.35 0.43,-0.33 0.44,-0.31 0.44,-0.29 0.44,-0.28 0.44,-0.26 0.44,-0.26 0.44,-0.24 0.43,-0.25 0.44,-0.24 0.44,-0.24 0.44,-0.24 0.44,-0.24 0.44,-0.25 0.44,-0.24 0.43,-0.24 0.44,-0.23 0.44,-0.23 0.44,-0.22 0.44,-0.21 0.44,-0.19 0.44,-0.18 0.43,-0.16 0.44,-0.14 0.44,-0.12 0.44,-0.11 0.44,-0.09 0.44,-0.07 0.44,-0.06 0.43,-0.05 0.44,-0.04 0.44,-0.03 0.44,-0.03 0.44,-0.03 0.44,-0.03 0.44,-0.02 0.44,-0.03 0.43,-0.04 0.44,-0.03 0.44,-0.04 0.44,-0.04 0.44,-0.04 0.44,-0.05 0.44,-0.04 0.43,-0.05 0.44,-0.04 0.44,-0.04 0.44,-0.04 0.44,-0.03 0.44,-0.03 0.44,-0.03 0.43,-0.02 0.44,-0.02 0.44,-0.02 0.44,-0.01 0.44,-0.02 0.44,-0.01 h 0.44 l 0.43,-0.01 h 0.44 0.44 l 0.44,-0.01 h 0.44 0.44 0.44 0.43 0.44 0.44 0.44 0.44 0.44 0.44 0.44 0.43 0.44 0.44 0.44 0.44 0.44 0.44 0.43 0.44 0.44 0.44 0.44 0.44 0.44 0.43 0.44 0.44 0.44 0.44 0.44 0.44 0.43 0.44 0.44 0.44 0.44 0.44 0.44 0.43 0.44 0.44 0.44 0.44 0.44 0.44 0.43 0.44 0.44 0.44 0.44 0.44 0.44 0.44 0.43 0.44 0.44 0.44 0.44 0.44 0.44 0.43"
           style="fill:none;stroke:#333333;stroke-width:2.13;stroke-linecap:round;stroke-linejoin:round;stroke-miterlimit:10;stroke-dasharray:none;stroke-opacity:1"
           id="path612" /><path
           d="M 611.98,31.91 H 858.52 V 264.85 H 611.98 Z"
           style="fill:none;stroke:#333333;stroke-width:1.07;stroke-linecap:round;stroke-linejoin:round;stroke-miterlimit:10;stroke-dasharray:none;stroke-opacity:1"
           id="path614" /></g></g><g
       id="g616" /><g
       id="g618" /><g
       id="g620" /><g
       id="g622" /><g
       id="g624" /><g
       id="g626" /><g
       id="g628" /><g
       id="g630" /><g
       id="g632" /><g
       id="g634" /><g
       id="g636" /><g
       id="g638" /><g
       id="g640" /><g
       id="g642" /><g
       id="g644" /><g
       id="g646"><text
         transform="matrix(1,0,0,-1,594.54,39.27)"
         style="font-variant:normal;font-weight:normal;font-size:9px;font-family:Helvetica;-inkscape-font-specification:Helvetica;writing-mode:lr-tb;fill:#4d4d4d;fill-opacity:1;fill-rule:nonzero;stroke:none"
         id="text650"><tspan
           x="0 5.0040002 7.506"
           y="0"
           sodipodi:role="line"
           id="tspan648">0.0</tspan></text><text
         transform="matrix(1,0,0,-1,594.54,81.62)"
         style="font-variant:normal;font-weight:normal;font-size:9px;font-family:Helvetica;-inkscape-font-specification:Helvetica;writing-mode:lr-tb;fill:#4d4d4d;fill-opacity:1;fill-rule:nonzero;stroke:none"
         id="text654"><tspan
           x="0 5.0040002 7.506"
           y="0"
           sodipodi:role="line"
           id="tspan652">0.1</tspan></text><text
         transform="matrix(1,0,0,-1,594.54,123.97)"
         style="font-variant:normal;font-weight:normal;font-size:9px;font-family:Helvetica;-inkscape-font-specification:Helvetica;writing-mode:lr-tb;fill:#4d4d4d;fill-opacity:1;fill-rule:nonzero;stroke:none"
         id="text658"><tspan
           x="0 5.0040002 7.506"
           y="0"
           sodipodi:role="line"
           id="tspan656">0.2</tspan></text><text
         transform="matrix(1,0,0,-1,594.54,166.32)"
         style="font-variant:normal;font-weight:normal;font-size:9px;font-family:Helvetica;-inkscape-font-specification:Helvetica;writing-mode:lr-tb;fill:#4d4d4d;fill-opacity:1;fill-rule:nonzero;stroke:none"
         id="text662"><tspan
           x="0 5.0040002 7.506"
           y="0"
           sodipodi:role="line"
           id="tspan660">0.3</tspan></text><text
         transform="matrix(1,0,0,-1,594.54,208.68)"
         style="font-variant:normal;font-weight:normal;font-size:9px;font-family:Helvetica;-inkscape-font-specification:Helvetica;writing-mode:lr-tb;fill:#4d4d4d;fill-opacity:1;fill-rule:nonzero;stroke:none"
         id="text666"><tspan
           x="0 5.0040002 7.506"
           y="0"
           sodipodi:role="line"
           id="tspan664">0.4</tspan></text><text
         transform="matrix(1,0,0,-1,594.54,251.03)"
         style="font-variant:normal;font-weight:normal;font-size:9px;font-family:Helvetica;-inkscape-font-specification:Helvetica;writing-mode:lr-tb;fill:#4d4d4d;fill-opacity:1;fill-rule:nonzero;stroke:none"
         id="text670"><tspan
           x="0 5.0040002 7.506"
           y="0"
           sodipodi:role="line"
           id="tspan668">0.5</tspan></text></g><g
       id="g672" /><g
       id="g674"><path
         d="m 609.24,42.5 h 2.74"
         style="fill:none;stroke:#333333;stroke-width:1.07;stroke-linecap:butt;stroke-linejoin:round;stroke-miterlimit:10;stroke-dasharray:none;stroke-opacity:1"
         id="path676" /><path
         d="m 609.24,84.85 h 2.74"
         style="fill:none;stroke:#333333;stroke-width:1.07;stroke-linecap:butt;stroke-linejoin:round;stroke-miterlimit:10;stroke-dasharray:none;stroke-opacity:1"
         id="path678" /><path
         d="m 609.24,127.2 h 2.74"
         style="fill:none;stroke:#333333;stroke-width:1.07;stroke-linecap:butt;stroke-linejoin:round;stroke-miterlimit:10;stroke-dasharray:none;stroke-opacity:1"
         id="path680" /><path
         d="m 609.24,169.55 h 2.74"
         style="fill:none;stroke:#333333;stroke-width:1.07;stroke-linecap:butt;stroke-linejoin:round;stroke-miterlimit:10;stroke-dasharray:none;stroke-opacity:1"
         id="path682" /><path
         d="m 609.24,211.91 h 2.74"
         style="fill:none;stroke:#333333;stroke-width:1.07;stroke-linecap:butt;stroke-linejoin:round;stroke-miterlimit:10;stroke-dasharray:none;stroke-opacity:1"
         id="path684" /><path
         d="m 609.24,254.26 h 2.74"
         style="fill:none;stroke:#333333;stroke-width:1.07;stroke-linecap:butt;stroke-linejoin:round;stroke-miterlimit:10;stroke-dasharray:none;stroke-opacity:1"
         id="path686" /></g><g
       id="g688" /><g
       id="g690" /><g
       id="g692" /><g
       id="g694" /><g
       id="g696" /><g
       id="g698" /><g
       id="g700" /><g
       id="g702" /><g
       id="g704" /><g
       id="g706"><path
         d="m 672.99,29.17 v 2.74"
         style="fill:none;stroke:#333333;stroke-width:1.07;stroke-linecap:butt;stroke-linejoin:round;stroke-miterlimit:10;stroke-dasharray:none;stroke-opacity:1"
         id="path708" /><path
         d="m 747.7,29.17 v 2.74"
         style="fill:none;stroke:#333333;stroke-width:1.07;stroke-linecap:butt;stroke-linejoin:round;stroke-miterlimit:10;stroke-dasharray:none;stroke-opacity:1"
         id="path710" /><path
         d="m 822.41,29.17 v 2.74"
         style="fill:none;stroke:#333333;stroke-width:1.07;stroke-linecap:butt;stroke-linejoin:round;stroke-miterlimit:10;stroke-dasharray:none;stroke-opacity:1"
         id="path712" /></g><g
       id="g714" /><g
       id="g716"><text
         transform="matrix(1,0,0,-1,660.36,20.52)"
         style="font-variant:normal;font-weight:normal;font-size:9px;font-family:Helvetica;-inkscape-font-specification:Helvetica;writing-mode:lr-tb;fill:#4d4d4d;fill-opacity:1;fill-rule:nonzero;stroke:none"
         id="text720"><tspan
           x="0 5.0040002 10.008 15.264 20.268"
           y="0"
           sodipodi:role="line"
           id="tspan718">1e−01</tspan></text><text
         transform="matrix(1,0,0,-1,735.07,20.52)"
         style="font-variant:normal;font-weight:normal;font-size:9px;font-family:Helvetica;-inkscape-font-specification:Helvetica;writing-mode:lr-tb;fill:#4d4d4d;fill-opacity:1;fill-rule:nonzero;stroke:none"
         id="text724"><tspan
           x="0 5.0040002 10.008 15.264 20.268"
           y="0"
           sodipodi:role="line"
           id="tspan722">1e+02</tspan></text><text
         transform="matrix(1,0,0,-1,809.77,20.52)"
         style="font-variant:normal;font-weight:normal;font-size:9px;font-family:Helvetica;-inkscape-font-specification:Helvetica;writing-mode:lr-tb;fill:#4d4d4d;fill-opacity:1;fill-rule:nonzero;stroke:none"
         id="text728"><tspan
           x="0 5.0040002 10.008 15.264 20.268"
           y="0"
           sodipodi:role="line"
           id="tspan726">1e+05</tspan></text></g><g
       id="g730" /><g
       id="g732" /><g
       id="g734" /><g
       id="g736" /><g
       id="g738" /><g
       id="g740"><text
         transform="matrix(1,0,0,-1,649.42,7.9)"
         style="font-variant:normal;font-weight:normal;font-size:11px;font-family:Helvetica;-inkscape-font-specification:Helvetica;writing-mode:lr-tb;fill:#000000;fill-opacity:1;fill-rule:nonzero;stroke:none"
         id="text744"><tspan
           x="0 9.1630001 15.279 20.778999 23.221001 32.273998 38.389999 47.553001 50.611 56.727001 62.842999 66.505997 69.564003 75.064003 81.18 87.295998 93.412003 95.853996 98.912003 101.354 107.47 113.586 116.644 125.807 131.923 138.039 144.155 147.213 155.155 162.492"
           y="0"
           sodipodi:role="line"
           id="tspan742">Maximum per condition mean CPM</tspan></text></g><g
       id="g746" /><g
       id="g748"><text
         transform="matrix(0,1,1,0,589.38,99.77)"
         style="font-variant:normal;font-weight:normal;font-size:11px;font-family:Helvetica;-inkscape-font-specification:Helvetica;writing-mode:lr-tb;fill:#000000;fill-opacity:1;fill-rule:nonzero;stroke:none"
         id="text752"><tspan
           x="0 6.7210002 10.384 16.5 22.615999 28.732 34.848 40.964001 46.464001 51.964001 55.021999 61.138 64.195999 67.253998 73.370003 79.486 85.601997 91.718002"
           y="0"
           sodipodi:role="line"
           id="tspan750">Frequency of genes</tspan></text></g><g
       id="g754" /><g
       id="g756" /><g
       id="g758" /><g
       id="g760" /><g
       id="g762" /><g
       id="g770" /><g
       id="g772" /><g
       id="g774" /><g
       id="g776" /><g
       id="g778" /><g
       id="g780" /><g
       id="g782" /><g
       id="g784"><text
         transform="matrix(1,0,0,-1,581.05,272.92)"
         style="font-variant:normal;font-weight:bold;font-size:14px;font-family:Helvetica;-inkscape-font-specification:Helvetica-Bold;writing-mode:lr-tb;fill:#000000;fill-opacity:1;fill-rule:nonzero;stroke:none"
         id="text788"><tspan
           x="0"
           y="0"
           id="tspan786">C</tspan></text></g><g
       id="g790" /><g
       id="g792" /><g
       id="g794" /><g
       id="g796" /><g
       id="g798" /><g
       id="g800" /><g
       id="g802" /><g
       id="g804" /><g
       id="g806" /><g
       id="g808" /><g
       id="g810" /><g
       id="g812" /><g
       id="g814" /><g
       id="g816" /><g
       id="g818" /><g
       id="g820" /><g
       id="g822" /><g
       id="g824" /><g
       id="g826" /><g
       id="g828" /><g
       id="g830" /><g
       id="g832" /><g
       id="g834" /><g
       id="g836" /><g
       id="g838" /><g
       id="g840" /><g
       id="g842" /><g
       id="g844" /><g
       id="g846" /><g
       id="g848" /><g
       id="g850" /><g
       id="g852" /><g
       id="g854" /><g
       id="g856" /><g
       id="g858" /><g
       id="g860" /><g
       id="g862" /><g
       id="g864" /><g
       id="g866" /><g
       id="g868" /><g
       id="g870" /><g
       id="g872" /><g
       id="g874" /><g
       id="g876" /><text
       xml:space="preserve"
       style="font-size:12px;line-height:1.25;font-family:'Lucida Console';-inkscape-font-specification:'Lucida Console';stroke-width:0.75"
       x="35.458515"
       y="-274.35165"
       id="text2773"
       transform="scale(1,-1)"><tspan
         sodipodi:role="line"
         id="tspan2771"
         style="font-style:italic;font-variant:normal;font-weight:normal;font-stretch:normal;font-size:12px;font-family:arial;-inkscape-font-specification:arial;stroke-width:0.75"
         x="35.458515"
         y="-274.35165">Bc.</tspan></text><text
       xml:space="preserve"
       style="font-size:12px;line-height:1.25;font-family:'Lucida Console';-inkscape-font-specification:'Lucida Console';stroke-width:0.75"
       x="323.43509"
       y="-274.35165"
       id="text2773-5"
       transform="scale(1,-1)"><tspan
         sodipodi:role="line"
         id="tspan2771-1"
         style="font-style:italic;font-variant:normal;font-weight:normal;font-stretch:normal;font-size:12px;font-family:arial;-inkscape-font-specification:arial;stroke-width:0.75"
         x="323.43509"
         y="-274.35165">Fj.</tspan></text><text
       xml:space="preserve"
       style="font-size:12px;line-height:1.25;font-family:'Lucida Console';-inkscape-font-specification:'Lucida Console';stroke-width:0.75"
       x="611.46436"
       y="-274.35165"
       id="text2773-6"
       transform="scale(1,-1)"><tspan
         sodipodi:role="line"
         id="tspan2771-2"
         style="font-style:italic;font-variant:normal;font-weight:normal;font-stretch:normal;font-size:12px;font-family:arial;-inkscape-font-specification:arial;stroke-width:0.75"
         x="611.46436"
         y="-274.35165">Pk</tspan></text></g></svg>
